<?xml version="1.0" encoding="UTF-8"?>
<!DOCTYPE svg PUBLIC "-//W3C//DTD SVG 1.1//EN" "http://www.w3.org/Graphics/SVG/1.1/DTD/svg11.dtd">
<!-- Creator: CorelDRAW -->
<svg xmlns="http://www.w3.org/2000/svg" xml:space="preserve" width="32.3405mm" height="16.5684mm" version="1.1" style="shape-rendering:geometricPrecision; text-rendering:geometricPrecision; image-rendering:optimizeQuality; fill-rule:evenodd; clip-rule:evenodd"
viewBox="0 0 112.9 57.84"
 xmlns:xlink="http://www.w3.org/1999/xlink"
 xmlns:xodm="http://www.corel.com/coreldraw/odm/2003">
 <defs>
  <style type="text/css">
   <![CDATA[
    .fil0 {fill:#EC3337;fill-rule:nonzero}
   ]]>
  </style>
 </defs>
 <g id="Capa_x0020_1">
  <metadata id="CorelCorpID_0Corel-Layer"/>
  <path class="fil0" d="M110.56 2.39c-1.51,-1.53 -3.58,-2.39 -5.73,-2.39 -2.15,0 -4.21,0.86 -5.73,2.39l-36.93 36.93c-1.51,1.52 -3.57,2.38 -5.72,2.38 -2.15,0 -4.21,-0.86 -5.73,-2.39l-36.93 -36.93c-1.51,-1.53 -3.57,-2.39 -5.72,-2.39 -2.15,0 -4.21,0.86 -5.73,2.39 -1.5,1.51 -2.34,3.56 -2.34,5.68 0,2.13 0.84,4.18 2.34,5.69l37.01 37.01c4.53,4.53 10.69,7.07 17.09,7.07 6.41,0 12.56,-2.55 17.09,-7.07l37.01 -37.01c1.5,-1.51 2.35,-3.56 2.35,-5.69 0,-2.13 -0.84,-4.18 -2.34,-5.68l0 0z"/>
 </g>
</svg>
