<svg width="24" height="24" viewBox="0 0 24 24" fill="none" xmlns="http://www.w3.org/2000/svg">
<g clip-path="url(#clip0_53832_19749)">
<g clip-path="url(#clip1_53832_19749)">
<path fill-rule="evenodd" clip-rule="evenodd" d="M-4.36353 -0.273438H42.2728V1.61861H-4.36353V-0.273438ZM-4.36353 3.50554H42.2728V5.39759H-4.36353V3.50554ZM-4.36353 7.2794H42.2728V9.17145H-4.36353V7.2794ZM-4.36353 11.0533H42.2728V12.9453H-4.36353V11.0533ZM-4.36353 14.8374H42.2728V16.7192H-4.36353V14.8374ZM-4.36353 18.6061H42.2728V20.4982H-4.36353V18.6061ZM-4.36353 22.38H42.2728V24.272H-4.36353V22.38Z" fill="#BD3D44"/>
<path fill-rule="evenodd" clip-rule="evenodd" d="M-4.36353 1.61719H42.2728V3.50412H-4.36353V1.61719ZM-4.36353 5.39105H42.2728V7.27798H-4.36353V5.39105ZM-4.36353 9.16492H42.2728V11.057H-4.36353V9.16492ZM-4.36353 12.9439H42.2728V14.8359H-4.36353V12.9439ZM-4.36353 16.7178H42.2728V18.6098H-4.36353V16.7178ZM-4.36353 20.4916H42.2728V22.3837H-4.36353V20.4916Z" fill="white"/>
<path fill-rule="evenodd" clip-rule="evenodd" d="M-4.36353 -0.273438H14.291V12.9453H-4.36353V-0.273438Z" fill="#192F5D"/>
<path fill-rule="evenodd" clip-rule="evenodd" d="M-2.80901 0.289062L-2.63514 0.815767H-2.0931L-2.53287 1.13793L-2.36412 1.66463L-2.80901 1.33736L-3.24878 1.65952L-3.08514 1.13793L-3.53003 0.815767H-2.97264L-2.80901 0.289062ZM0.300084 0.289062L0.468834 0.815767H1.02111L0.576221 1.13793L0.739857 1.66463L0.300084 1.33736L-0.144802 1.65952L0.0239477 1.13793L-0.415825 0.815767H0.12622L0.300084 0.289062ZM3.40917 0.289062L3.57792 0.815767H4.12508L3.68531 1.13793L3.85406 1.66463L3.40917 1.33736L2.96429 1.65952L3.13304 1.13793L2.68815 0.815767H3.24042L3.40917 0.289062ZM6.51827 0.289062L6.68702 0.815767H7.23929L6.7944 1.13793L6.96315 1.66463L6.51827 1.33736L6.07338 1.65952L6.24724 1.13793L5.79724 0.815767H6.3444L6.51827 0.289062ZM9.62736 0.289062L9.79611 0.815767H10.3433L9.90349 1.13793L10.0722 1.66463L9.62736 1.33736L9.18247 1.65952L9.35122 1.13793L8.91145 0.815767H9.4586L9.62736 0.289062ZM12.7364 0.289062L12.9052 0.815767H13.4575L13.0075 1.13793L13.1813 1.66463L12.7364 1.33736L12.2916 1.65952L12.4654 1.13793L12.0154 0.815767H12.5677L12.7364 0.289062ZM-1.25446 1.61861L-1.08571 2.1402H-0.528325L-0.973211 2.45724L-0.809575 2.98395L-1.24423 2.66179L-1.68912 2.98395L-1.5306 2.45724L-1.96014 2.1402H-1.41298L-1.25446 1.61861ZM1.85463 1.61861L2.02849 2.1402H2.57565L2.12565 2.45724L2.29952 2.98395L1.85463 2.66179L1.40974 2.98395L1.57849 2.45724L1.13361 2.1402H1.68588L1.85463 1.61861ZM4.96372 1.61861L5.13247 2.1402H5.68474L5.23986 2.45724L5.40861 2.98395L4.96372 2.66179L4.51883 2.98395L4.68758 2.45724L4.24781 2.1402H4.78986L4.96372 1.61861ZM8.07281 1.61861L8.24667 2.1402H8.79383L8.34383 2.45724L8.5177 2.98395L8.07281 2.66179L7.63304 2.98395L7.79667 2.45724L7.35179 2.1402H7.90917L8.07281 1.61861ZM11.1819 1.61861L11.3507 2.1402H11.9029L11.458 2.45724L11.6268 2.98395L11.1819 2.66179L10.737 2.98395L10.9058 2.45724L10.466 2.1402H11.0132L11.1819 1.61861ZM-2.80901 2.9277L-2.63514 3.45952H-2.0931L-2.53287 3.78168L-2.36412 4.30327L-2.80901 3.98111L-3.24878 4.30327L-3.08514 3.78168L-3.53003 3.45952H-2.97264L-2.80901 2.9277ZM0.300084 2.9277L0.468834 3.45952H1.02111L0.576221 3.78168L0.739857 4.30327L0.300084 3.98111L-0.144802 4.30327L0.0239477 3.77656L-0.415825 3.4544H0.12622L0.300084 2.9277ZM3.40917 2.9277L3.57792 3.4544H4.12508L3.68531 3.77656L3.85406 4.29815L3.40917 3.97599L2.96429 4.29815L3.13304 3.77145L2.68815 3.44929H3.24042L3.40917 2.9277ZM6.51827 2.9277L6.68702 3.4544H7.23929L6.7944 3.77656L6.96315 4.29815L6.51827 3.97599L6.07338 4.29815L6.24724 3.77145L5.79724 3.44929H6.3444L6.51827 2.9277ZM9.62736 2.9277L9.79611 3.4544H10.3433L9.90349 3.77656L10.0722 4.29815L9.62736 3.97599L9.18247 4.29815L9.35122 3.77145L8.91145 3.44929H9.4586L9.62736 2.9277ZM12.7364 2.9277L12.9052 3.4544H13.4575L13.0075 3.77656L13.1813 4.29815L12.7364 3.97599L12.2916 4.29815L12.4654 3.77145L12.0154 3.44929H12.5677L12.7364 2.9277ZM-1.25446 4.25724L-1.08571 4.77884H-0.528325L-0.973211 5.101L-0.804461 5.6277L-1.24935 5.30043L-1.69423 5.62259L-1.52548 5.101L-1.96526 4.77884H-1.4181L-1.25446 4.25724ZM1.85463 4.25724L2.02849 4.77884H2.57565L2.12565 5.101L2.29952 5.6277L1.85463 5.30043L1.40974 5.62259L1.57849 5.101L1.13361 4.77884H1.68588L1.85463 4.25724ZM4.96372 4.25724L5.13247 4.77884H5.68474L5.23986 5.101L5.40861 5.6277L4.96372 5.30043L4.51883 5.62259L4.68758 5.101L4.24781 4.77884H4.78986L4.96372 4.25724ZM8.07281 4.25724L8.24667 4.77884H8.79383L8.34895 5.101L8.5177 5.6277L8.07281 5.30043L7.63304 5.62259L7.79667 5.101L7.35179 4.77884H7.90917L8.07281 4.25724ZM11.1819 4.25724L11.3507 4.77884H11.9029L11.458 5.101L11.6268 5.6277L11.1819 5.30043L10.737 5.62259L10.9058 5.101L10.466 4.77884H11.0132L11.1819 4.25724ZM-2.80901 5.58168L-2.63514 6.10327H-2.0931L-2.53287 6.42543L-2.36412 6.95213L-2.80901 6.62486L-3.24878 6.94702L-3.08514 6.42543L-3.53003 6.10327H-2.97264L-2.80901 5.58168ZM0.300084 5.58168L0.468834 6.10327H1.02111L0.576221 6.42543L0.739857 6.94702L0.300084 6.62486L-0.144802 6.94702L0.0239477 6.42543L-0.415825 6.10327H0.12622L0.300084 5.58168ZM3.40917 5.58168L3.57792 6.10327H4.12508L3.68531 6.42543L3.85406 6.95213L3.40917 6.62486L2.96429 6.94702L3.13304 6.42543L2.68815 6.10327H3.24042L3.40917 5.58168ZM6.51827 5.58168L6.68702 6.10327H7.23929L6.7944 6.42543L6.96315 6.95213L6.51827 6.62486L6.07338 6.94702L6.24724 6.42543L5.79724 6.10327H6.3444L6.51827 5.58168ZM9.62736 5.58168L9.79611 6.10327H10.3433L9.90349 6.42543L10.0722 6.95213L9.62736 6.62486L9.18247 6.94702L9.35122 6.42543L8.91145 6.10327H9.4586L9.62736 5.58168ZM12.7364 5.58168L12.9052 6.10327H13.4575L13.0075 6.42543L13.1813 6.95213L12.7364 6.62486L12.2916 6.94702L12.4603 6.42543L12.0103 6.10327H12.5626L12.7364 5.58168ZM-1.25446 6.901L-1.08571 7.4277H-0.528325L-0.973211 7.74475L-0.804461 8.27145L-1.24935 7.94418L-1.69423 8.27145L-1.52548 7.74475L-1.96526 7.42259H-1.4181L-1.25446 6.901ZM1.85463 6.901L2.02849 7.4277H2.57565L2.12565 7.74475L2.29952 8.27145L1.85463 7.94418L1.40974 8.27145L1.57849 7.74475L1.13361 7.42259H1.68588L1.85463 6.901ZM4.96372 6.901L5.13247 7.4277H5.68474L5.23986 7.74475L5.40861 8.27145L4.96372 7.94418L4.51883 8.27145L4.68758 7.74475L4.24781 7.42259H4.78986L4.96372 6.901ZM8.07281 6.901L8.24667 7.4277H8.79383L8.34895 7.74475L8.5177 8.27145L8.07281 7.94418L7.63304 8.27145L7.79667 7.74475L7.35179 7.42259H7.90917L8.07281 6.901ZM11.1819 6.901L11.3507 7.4277H11.9029L11.458 7.74475L11.6268 8.27145L11.1819 7.94418L10.737 8.27145L10.9058 7.74475L10.466 7.42259H11.0132L11.1819 6.901ZM-2.80901 8.22031L-2.63514 8.74702H-2.0931L-2.53287 9.06918L-2.36412 9.58566L-2.80901 9.26861L-3.24878 9.58566L-3.08514 9.06406L-3.53003 8.74191H-2.97264L-2.80901 8.22031ZM0.300084 8.22031L0.468834 8.74702H1.02111L0.576221 9.06918L0.744971 9.58566L0.300084 9.26861L-0.144802 9.58566L0.0290616 9.06406L-0.415825 8.74191H0.12622L0.300084 8.22031ZM3.40917 8.22031L3.57792 8.74702H4.12508L3.68531 9.06918L3.85406 9.58566L3.40917 9.26861L2.96429 9.58566L3.13304 9.06406L2.68815 8.74191H3.24042L3.40917 8.22031ZM6.51827 8.22031L6.68702 8.74702H7.23929L6.7944 9.06918L6.96315 9.58566L6.51827 9.26861L6.07338 9.58566L6.24724 9.06406L5.79724 8.74191H6.3444L6.51827 8.22031ZM9.62736 8.22031L9.79611 8.74702H10.3433L9.90349 9.06918L10.0722 9.58566L9.62736 9.26861L9.18247 9.58566L9.35122 9.06406L8.91145 8.74191H9.4586L9.62736 8.22031ZM12.7364 8.22031L12.9052 8.74702H13.4575L13.0075 9.06918L13.1813 9.58566L12.7364 9.26861L12.2916 9.58566L12.4654 9.06406L12.0154 8.74191H12.5677L12.7364 8.22031ZM-1.25446 9.54475L-1.08571 10.0663H-0.528325L-0.973211 10.3885L-0.804461 10.9152L-1.24935 10.5879L-1.69423 10.9101L-1.52548 10.3885L-1.96526 10.0663H-1.4181L-1.25446 9.54475ZM1.85463 9.54475L2.02849 10.0663H2.57565L2.12565 10.3885L2.29952 10.9152L1.85463 10.5879L1.40974 10.9101L1.57849 10.3885L1.13361 10.0663H1.68588L1.85463 9.54475ZM4.96372 9.54475L5.13247 10.0663H5.68474L5.23986 10.3885L5.40861 10.9152L4.96372 10.5879L4.51883 10.9101L4.68758 10.3885L4.24781 10.0663H4.78986L4.96372 9.54475ZM8.07281 9.54475L8.24667 10.0663H8.79383L8.34895 10.3885L8.5177 10.9152L8.07281 10.5879L7.63304 10.9101L7.79667 10.3885L7.35179 10.0663H7.90917L8.07281 9.54475ZM11.1819 9.54475L11.3507 10.0663H11.9029L11.458 10.3885L11.6268 10.9152L11.1819 10.5879L10.737 10.9101L10.9058 10.3885L10.466 10.0663H11.0132L11.1819 9.54475ZM-2.80901 10.8692L-2.63514 11.3908H-2.0931L-2.53287 11.7129L-2.36412 12.2345L-2.80901 11.9124L-3.24878 12.2345L-3.08514 11.7078L-3.53003 11.3857H-2.97264L-2.80901 10.8692ZM0.300084 10.8692L0.468834 11.3908H1.02111L0.576221 11.7129L0.744971 12.2345L0.300084 11.9124L-0.144802 12.2345L0.0290616 11.7078L-0.415825 11.3857H0.12622L0.300084 10.8692ZM3.40917 10.8692L3.57792 11.3908H4.12508L3.69554 11.7129L3.86429 12.2345L3.4194 11.9124L2.97452 12.2345L3.14327 11.7078L2.69838 11.3857H3.25065L3.40917 10.8692ZM6.51827 10.8692L6.68702 11.3908H7.23929L6.7944 11.7129L6.96315 12.2345L6.51827 11.9124L6.07338 12.2345L6.24724 11.7078L5.79724 11.3857H6.3444L6.51827 10.8692ZM9.62736 10.8692L9.79611 11.3908H10.3433L9.90349 11.7129L10.0722 12.2345L9.62736 11.9124L9.18247 12.2345L9.35122 11.7078L8.91145 11.3857H9.4586L9.62736 10.8692ZM12.7364 10.8692L12.9052 11.3908H13.4575L13.0075 11.7129L13.1813 12.2345L12.7364 11.9124L12.2916 12.2345L12.4654 11.7078L12.0154 11.3857H12.5677L12.7364 10.8692Z" fill="white"/>
</g>
</g>
<defs>
<clipPath id="clip0_53832_19749">
<rect width="24" height="24" rx="12" fill="white"/>
</clipPath>
<clipPath id="clip1_53832_19749">
<rect width="32.7273" height="24.5455" fill="white" transform="translate(-4.36353 -0.273438)"/>
</clipPath>
</defs>
</svg>
