<?xml version="1.0" encoding="UTF-8"?>
<!DOCTYPE svg PUBLIC "-//W3C//DTD SVG 1.1//EN" "http://www.w3.org/Graphics/SVG/1.1/DTD/svg11.dtd">
<!-- Creator: CorelDRAW -->
<svg xmlns="http://www.w3.org/2000/svg" xml:space="preserve" width="0.812906in" height="0.726516in" version="1.1" style="shape-rendering:geometricPrecision; text-rendering:geometricPrecision; image-rendering:optimizeQuality; fill-rule:evenodd; clip-rule:evenodd"
viewBox="0 0 14.71 13.14"
 xmlns:xlink="http://www.w3.org/1999/xlink"
 xmlns:xodm="http://www.corel.com/coreldraw/odm/2003">
 <defs>
  <style type="text/css">
   <![CDATA[
    .fil0 {fill:#C63437;fill-rule:nonzero}
   ]]>
  </style>
 </defs>
 <g id="Capa_x0020_1">
  <metadata id="CorelCorpID_0Corel-Layer"/>
  <path class="fil0" d="M3.18 6.66l4.1 0c0.25,0 0.25,0.42 0.02,0.42l-4.12 0c-0.18,0 -0.18,-0.42 0,-0.42zm0.02 -1.59l8.21 0c0.34,0 0.34,0.42 0.02,0.42l-8.22 0c-0.25,0 -0.3,-0.42 0,-0.42zm0 -1.59l8.32 0c0.28,0 0.28,0.42 0,0.42l-8.34 0c-0.22,0 -0.24,-0.42 0.02,-0.42zm4.63 6.79c3.84,-0.17 6.87,-2.4 6.87,-5.13 0,-2.84 -3.29,-5.14 -7.35,-5.14 -4.06,0 -7.35,2.3 -7.35,5.14 0,2.16 1.9,4 4.6,4.77l-1.21 3.24 4.44 -2.88z"/>
 </g>
</svg>
