<?xml version="1.0" encoding="UTF-8"?>
<!DOCTYPE svg PUBLIC "-//W3C//DTD SVG 1.1//EN" "http://www.w3.org/Graphics/SVG/1.1/DTD/svg11.dtd">
<!-- Creator: CorelDRAW -->
<svg xmlns="http://www.w3.org/2000/svg" xml:space="preserve" width="19.8772mm" height="26.5042mm" version="1.1" style="shape-rendering:geometricPrecision; text-rendering:geometricPrecision; image-rendering:optimizeQuality; fill-rule:evenodd; clip-rule:evenodd"
viewBox="0 0 33.29 44.39"
 xmlns:xlink="http://www.w3.org/1999/xlink"
 xmlns:xodm="http://www.corel.com/coreldraw/odm/2003">
 <defs>
  <style type="text/css">
   <![CDATA[
    .fil0 {fill:#4D4E50;fill-rule:nonzero}
   ]]>
  </style>
 </defs>
 <g id="Capa_x0020_1">
  <metadata id="CorelCorpID_0Corel-Layer"/>
  <path class="fil0" d="M16.65 22.2c6.13,0 11.1,-4.97 11.1,-11.1 0,-6.13 -4.97,-11.1 -11.1,-11.1 -6.13,0 -11.1,4.97 -11.1,11.1 0.01,6.13 4.97,11.09 11.1,11.1l-0 0z"/>
  <path class="fil0" d="M16.65 25.89c-9.19,0.01 -16.64,7.46 -16.65,16.65 0,1.02 0.83,1.85 1.85,1.85 0.08,0 5.33,-0.04 14.08,-0.02 10.21,0.02 15.42,0.02 15.52,0.02 1.02,-0.04 1.85,-0.83 1.85,-1.85 -0.01,-9.19 -7.46,-16.64 -16.65,-16.65l0 0z"/>
 </g>
</svg>
