<?xml version="1.0" encoding="UTF-8"?>
<!DOCTYPE svg PUBLIC "-//W3C//DTD SVG 1.1//EN" "http://www.w3.org/Graphics/SVG/1.1/DTD/svg11.dtd">
<!-- Creator: CorelDRAW -->
<svg xmlns="http://www.w3.org/2000/svg" xml:space="preserve" width="19.8756mm" height="26.5008mm" version="1.1" style="shape-rendering:geometricPrecision; text-rendering:geometricPrecision; image-rendering:optimizeQuality; fill-rule:evenodd; clip-rule:evenodd"
viewBox="0 0 41.93 55.9"
 xmlns:xlink="http://www.w3.org/1999/xlink"
 xmlns:xodm="http://www.corel.com/coreldraw/odm/2003">
 <defs>
  <style type="text/css">
   <![CDATA[
    .fil0 {fill:#EC3337;fill-rule:nonzero}
   ]]>
  </style>
 </defs>
 <g id="Capa_x0020_1">
  <metadata id="CorelCorpID_0Corel-Layer"/>
  <g id="_2293970130080">
   <path class="fil0" d="M20.96 27.95c7.72,0 13.98,-6.26 13.98,-13.98 0,-7.72 -6.26,-13.98 -13.98,-13.98 -7.72,0 -13.98,6.26 -13.98,13.98 0.01,7.71 6.26,13.97 13.98,13.98l-0 0zm0 -23.29c5.14,0 9.32,4.17 9.32,9.32 0,5.15 -4.17,9.32 -9.32,9.32 -5.14,0 -9.32,-4.17 -9.32,-9.32 0,-5.14 4.17,-9.32 9.32,-9.32z"/>
   <path class="fil0" d="M20.96 32.61c-11.57,0.01 -20.95,9.39 -20.96,20.96 0,1.29 1.04,2.33 2.33,2.33 1.29,0 2.33,-1.04 2.33,-2.33 0,-9 7.3,-16.31 16.31,-16.31 9,0 16.31,7.3 16.31,16.31 0,1.29 1.04,2.33 2.33,2.33 1.29,0 2.33,-1.04 2.33,-2.33 -0.01,-11.57 -9.39,-20.95 -20.96,-20.96l0 0z"/>
  </g>
 </g>
</svg>
