<?xml version="1.0" encoding="UTF-8"?>
<!DOCTYPE svg PUBLIC "-//W3C//DTD SVG 1.1//EN" "http://www.w3.org/Graphics/SVG/1.1/DTD/svg11.dtd">
<!-- Creator: CorelDRAW -->
<svg xmlns="http://www.w3.org/2000/svg" xml:space="preserve" width="25.186mm" height="27.067mm" version="1.1" style="shape-rendering:geometricPrecision; text-rendering:geometricPrecision; image-rendering:optimizeQuality; fill-rule:evenodd; clip-rule:evenodd"
viewBox="0 0 180.96 194.47"
 xmlns:xlink="http://www.w3.org/1999/xlink"
 xmlns:xodm="http://www.corel.com/coreldraw/odm/2003">
 <defs>
  <style type="text/css">
   <![CDATA[
    .fil0 {fill:#C63437;fill-rule:nonzero}
   ]]>
  </style>
 </defs>
 <g id="Capa_x0020_1">
  <metadata id="CorelCorpID_0Corel-Layer"/>
  <path class="fil0" d="M173.07 52.68c-5.47,-1.44 -10.92,2.48 -12.18,8.78l-11.73 58.81 -88.48 -0.94 -21.32 -98.21c-0.69,-3.16 -2.49,-5.84 -4.96,-7.42l-19.35 -12.26c-4.92,-3.11 -11.1,-1.05 -13.8,4.62 -2.7,5.66 -0.9,12.78 4.01,15.89l15.46 9.8 21.72 100.03 -11.7 10.63c-1.4,1.27 -2.21,3.2 -2.21,5.25l0 16.72c0,3.66 2.55,6.64 5.72,6.69l16.39 0.27c-2.28,2.44 -3.72,5.89 -3.72,9.76 0,7.39 5.2,13.37 11.61,13.37 6.41,0 11.61,-5.98 11.61,-13.37 0,-3.72 -1.32,-7.08 -3.45,-9.5l76.64 1.24c-1.57,2.28 -2.54,5.13 -2.54,8.26 0,7.39 5.2,13.37 11.61,13.37 6.41,0 11.61,-5.98 11.61,-13.37 0,-2.99 -0.88,-5.73 -2.33,-7.96l9.99 0.16c0.03,0 0.06,0 0.08,0 3.16,0 5.76,-2.93 5.8,-6.59 0.05,-3.69 -2.52,-6.73 -5.73,-6.78l-124.5 -2.01c-7.42,-0.05 -7.22,0.54 -7.2,-3.88 0.01,-3.16 -0.11,-2.62 4.96,-7.6l4.73 -4.3c0.9,0.31 1.84,0.52 2.82,0.52l104.5 1.12c0.03,0 0.07,0 0.1,0 4.73,0 8.84,-3.77 9.9,-9.09l13.56 -67.99c1.25,-6.3 -2.16,-12.58 -7.63,-14.02z"/>
 </g>
</svg>
