<?xml version="1.0" encoding="UTF-8"?>
<!DOCTYPE svg PUBLIC "-//W3C//DTD SVG 1.1//EN" "http://www.w3.org/Graphics/SVG/1.1/DTD/svg11.dtd">
<!-- Creator: CorelDRAW -->
<svg xmlns="http://www.w3.org/2000/svg" xml:space="preserve" width="16.8952mm" height="14.3346mm" version="1.1" style="shape-rendering:geometricPrecision; text-rendering:geometricPrecision; image-rendering:optimizeQuality; fill-rule:evenodd; clip-rule:evenodd"
viewBox="0 0 329.95 279.94"
 xmlns:xlink="http://www.w3.org/1999/xlink"
 xmlns:xodm="http://www.corel.com/coreldraw/odm/2003">
 <defs>
  <style type="text/css">
   <![CDATA[
    .fil1 {fill:#ED3237}
    .fil0 {fill:#ED3237;fill-rule:nonzero}
   ]]>
  </style>
 </defs>
 <g id="Capa_x0020_1">
  <metadata id="CorelCorpID_0Corel-Layer"/>
  <g id="_2181578958192">
   <path class="fil0" d="M319.93 76.26c-8.82,-2.23 -12.75,-0.8 -14.82,8.6l-19.94 86.96c-3.38,14.47 -1.7,12.91 -17.47,13.04l-146.86 1.14c-16.63,0.27 -14.91,1.79 -19.12,-13.77l-39.06 -138.56c-1.29,-4.91 -4.55,-9.06 -9.02,-11.48l-34.91 -18.78c-10.14,-5 -9.8,-5.33 -15.07,4.56 -5.9,10.67 -5.93,9.36 9.5,18.02l27.9 15.01 40.43 155.53 -20.84 16.76c-2.49,2 -3.92,5.03 -3.89,8.22l0.24 26.05c0.05,5.7 4.67,10.3 10.37,10.33 110.85,0.56 202.71,0.99 246.69,1.19 0.05,0 0.1,-0 0.15,-0 5.68,-0.05 10.29,-4.66 10.32,-10.37 0.03,-5.75 -4.62,-10.45 -10.37,-10.48l-223.52 -1.07c-13.33,0.05 -12.94,0.97 -12.98,-5.93 -0.03,-4.93 -0.23,-4.08 8.79,-11.93l8.42 -6.77c1.62,0.47 3.32,0.78 5.08,0.77l187.59 0.01c0.06,0 0.12,-0 0.18,-0 8.49,-0.08 15.81,-6.02 17.64,-14.32l23.36 -106.18c2.22,-10.12 2.59,-13.67 -8.78,-16.55z"/>
   <circle class="fil1" cx="115.81" cy="269.76" r="10.15"/>
   <circle class="fil1" cx="270.92" cy="269.79" r="10.15"/>
  </g>
 </g>
</svg>
