<?xml version="1.0" encoding="UTF-8"?>
<!DOCTYPE svg PUBLIC "-//W3C//DTD SVG 1.1//EN" "http://www.w3.org/Graphics/SVG/1.1/DTD/svg11.dtd">
<!-- Creator: CorelDRAW -->
<svg xmlns="http://www.w3.org/2000/svg" xml:space="preserve" width="25.186mm" height="27.083mm" version="1.1" style="shape-rendering:geometricPrecision; text-rendering:geometricPrecision; image-rendering:optimizeQuality; fill-rule:evenodd; clip-rule:evenodd"
viewBox="0 0 121.75 130.93"
 xmlns:xlink="http://www.w3.org/1999/xlink"
 xmlns:xodm="http://www.corel.com/coreldraw/odm/2003">
 <defs>
  <style type="text/css">
   <![CDATA[
    .fil0 {fill:#C63437;fill-rule:nonzero}
   ]]>
  </style>
 </defs>
 <g id="Capa_x0020_1">
  <metadata id="CorelCorpID_0Corel-Layer"/>
  <path class="fil0" d="M113.64 130.93l-105.52 0c-4.48,-0.01 -8.11,-6.52 -8.12,-14.55l-0 -15.3c0.02,-6.96 2.78,-12.94 6.59,-14.25 5.62,-2.15 11.11,-11.05 11.11,-21.35 0,-10.31 -5.49,-19.21 -11.11,-21.35 -3.81,-1.32 -6.58,-7.29 -6.59,-14.26l-0 -15.31c0.01,-8.03 3.64,-14.54 8.12,-14.55l105.52 0c4.48,0.01 8.11,6.52 8.12,14.55l0 101.83c-0.01,8.02 -3.64,14.53 -8.12,14.54l0 0zm-4.22 -115.93l-98.05 0.01 0 16.3c9.18,0.39 17.97,16.95 17.7,34.16 -0.33,20.85 -8.53,32.2 -17.55,34.11l-0.15 15.84 98.05 0 0 -100.43z"/>
  <path class="fil0" d="M85.03 119.99l0 -13.49 7.84 -0.06 -0 13.6 -7.83 -0.05zm0 -22.99l0 -14.38 7.87 -0.14 -0.03 14.41 -7.84 0.12zm0 -24.76l0 -13.85 7.93 0 -0.05 13.63 -7.88 0.22zm0 -24.17l0 -13.55 7.99 -0.17 -0.05 13.82 -7.94 -0.1zm0 -23.89l0 -13.7 8.05 0 -0.02 13.51 -8.03 0.19z"/>
 </g>
</svg>
