<?xml version="1.0" encoding="UTF-8"?>
<!DOCTYPE svg PUBLIC "-//W3C//DTD SVG 1.1//EN" "http://www.w3.org/Graphics/SVG/1.1/DTD/svg11.dtd">
<!-- Creator: CorelDRAW -->
<svg xmlns="http://www.w3.org/2000/svg" xml:space="preserve" width="44.91mm" height="26.9456mm" version="1.1" style="shape-rendering:geometricPrecision; text-rendering:geometricPrecision; image-rendering:optimizeQuality; fill-rule:evenodd; clip-rule:evenodd"
viewBox="0 0 485.65 291.39"
 xmlns:xlink="http://www.w3.org/1999/xlink"
 xmlns:xodm="http://www.corel.com/coreldraw/odm/2003"
 data-name="Layer 4">
 <defs>
  <style type="text/css">
   <![CDATA[
    .fil1 {fill:#FEFEFE;fill-rule:nonzero}
    .fil0 {fill:#C63437;fill-rule:nonzero}
   ]]>
  </style>
 </defs>
 <g id="Capa_x0020_1">
  <metadata id="CorelCorpID_0Corel-Layer"/>
  <g id="_2716969726272">
   <path class="fil0" d="M453.27 291.39l-420.89 0c-17.87,-0.03 -32.35,-14.51 -32.37,-32.38l-0.01 -34.06c0.06,-15.5 11.09,-28.8 26.3,-31.72 22.43,-4.78 38.47,-24.59 38.47,-47.52 0,-22.94 -16.05,-42.76 -38.48,-47.52 -15.22,-2.94 -26.23,-16.23 -26.28,-31.73l-0.01 -34.07c0.03,-17.87 14.51,-32.35 32.39,-32.38l420.89 0c17.87,0.02 32.35,14.51 32.38,32.38l0 226.64c-0.02,17.86 -14.51,32.34 -32.38,32.37l0 0.01z"/>
   <path class="fil1" d="M339.95 267.66l0 -30.18 31.51 -0.14 -0.02 30.43 -31.5 -0.1zm0 -51.43l0 -32.18 31.63 -0.3 -0.1 32.22 -31.53 0.26zm0 -55.39l0 -30.98 31.89 0 -0.21 30.48 -31.67 0.49zm0 -54.08l0 -30.3 32.13 -0.37 -0.19 30.9 -31.93 -0.23zm0 -53.44l0 -30.65 32.38 0 -0.07 30.23 -32.31 0.42z"/>
  </g>
 </g>
</svg>
