<?xml version="1.0" encoding="UTF-8"?>
<!DOCTYPE svg PUBLIC "-//W3C//DTD SVG 1.1//EN" "http://www.w3.org/Graphics/SVG/1.1/DTD/svg11.dtd">
<!-- Creator: CorelDRAW -->
<svg xmlns="http://www.w3.org/2000/svg" xml:space="preserve" width="27.246mm" height="27.124mm" version="1.1" style="shape-rendering:geometricPrecision; text-rendering:geometricPrecision; image-rendering:optimizeQuality; fill-rule:evenodd; clip-rule:evenodd"
viewBox="0 0 38.23 38.06"
 xmlns:xlink="http://www.w3.org/1999/xlink"
 xmlns:xodm="http://www.corel.com/coreldraw/odm/2003">
 <defs>
  <style type="text/css">
   <![CDATA[
    .fil0 {fill:#C63437;fill-rule:nonzero}
   ]]>
  </style>
 </defs>
 <g id="Capa_x0020_1">
  <metadata id="CorelCorpID_0Corel-Layer"/>
  <path class="fil0" d="M9.93 13.6l-2.63 -1.88 0.72 -1.04c0.38,-0.54 0.81,-1.05 1.27,-1.52l0.9 -0.89 2.35 2.21 -0.89 0.9c-0.38,0.37 -0.75,0.76 -1.04,1.19l-0.69 1.03zm2.51 13.98l-0.89 -0.9c-2.14,-2.14 -3.07,-4.63 -3.07,-7.66 0,-0.76 0.08,-1.53 0.23,-2.27l0.25 -1.27 -3.24 -0.51 -0.25 1.27c-0.19,0.92 -0.29,1.87 -0.29,2.81 0,3.7 1.47,7.26 4.09,9.87l0.9 0.89 2.26 -2.24zm5.7 -13.62l6.14 0c0.7,0 1.27,-0.85 1.27,-1.55 0,-0.7 -0.57,-1.41 -1.27,-1.41l-3.81 0 0 -2.54c0,-0.7 -0.57,-1.27 -1.27,-1.27 -0.7,0 -1.27,0.57 -1.27,1.27l0 2.54 -0.63 -0c-2.45,0 -4.44,2.41 -4.44,4.86 0,2.45 1.99,4.58 4.44,4.58l2.96 0c1.05,0 1.9,0.71 1.9,1.76 0,1.05 -0.86,1.9 -1.9,1.9l-6.14 0c-0.7,-0 -1.27,0.85 -1.27,1.55 0,0.7 0.57,1.41 1.27,1.41l3.81 0 0 2.54c0,0.7 0.57,1.27 1.27,1.27 0.7,0 1.27,-0.57 1.27,-1.27l0 -2.54 0.63 0c2.45,-0 4.44,-2.41 4.44,-4.86 0,-2.45 -1.99,-4.58 -4.44,-4.58l-2.97 -0c-1.05,0 -1.9,-0.71 -1.9,-1.76 0,-1.05 0.85,-1.9 1.9,-1.9zm20.09 5.07c0,10.51 -8.46,19.02 -19.03,19.03 -11.28,0.01 -19.29,-9.63 -19.2,-19.02 0.09,-9.59 7.55,-19.02 19.78,-19.04 10.28,-0.01 18.45,8.74 18.45,19.02 0,0 0,0.01 0,0.01l-0 -0zm-3.38 0c0,-8.69 -6.69,-15.65 -15.37,-15.65 -8.69,0 -16.07,7.11 -16.07,15.65 0,8.55 6.97,15.65 15.79,15.65 8.69,0 15.65,-6.82 15.65,-15.65z"/>
 </g>
</svg>
