<svg xmlns="http://www.w3.org/2000/svg" version="1.1" viewBox="5.18 5 89.65 90">
 <path d="m8.1641 27.258h8.4141v5.2266h-6.1797v36.449h47.457v10.562h-49.691c-1.6406 0-2.9883-1.3516-2.9883-2.9883v-46.262c0-1.6406 1.3516-2.9883 2.9883-2.9883zm69.297 31.863c0.77344 0 1.5039 0.10938 2.1914 0.33203l1.4609-1.8828c0.375-0.48828 1.0859-0.59766 1.5703-0.19922 0.51172 0.375 0.59766 1.0625 0.22266 1.5742l-1.2188 1.5508-0.26562 0.35547-4.6055 5.9805-2.0586-2.3672c-0.39844-0.46484-1.1094-0.53125-1.5703-0.13281-0.48828 0.42188-0.53125 1.1289-0.13281 1.5938l2.9688 3.4336c0.42187 0.46484 1.1289 0.51172 1.5938 0.11328 0.066406-0.066406 0.10937-0.13281 0.17578-0.19922l5.4922-7.1523c0.86328 1.1719 1.3711 2.6367 1.3711 4.1836 0 3.9844-3.2109 7.1953-7.1953 7.1953-3.9648 0-7.1758-3.2109-7.1758-7.1953 0-3.9688 3.2109-7.1836 7.1758-7.1836zm-19.488-27.348c1.4375 0.28906 2.7695 0.86328 3.9648 1.6406l2.082-2.1055 3.2578 3.2578-2.1055 2.1055c0.55469 0.82031 0.99609 1.7031 1.3086 2.6562h-2.7227c-0.42187 0-0.83984 0.046875-1.2383 0.13281-1.2617-2.5039-3.8555-4.207-6.8438-4.207-4.2539 0-7.6836 3.4336-7.6836 7.6641 0 4.2539 3.4336 7.6836 7.6836 7.6836 0.75391 0 1.4844-0.10937 2.1914-0.3125v6.7578h-4.4961v-2.9688c-1.4375-0.28516-2.7695-0.86328-3.9648-1.6406l-2.1016 2.1055-3.2578-3.2578 2.1055-2.1055c-0.77344-1.1758-1.3516-2.5234-1.6406-3.9648h-2.9727v-4.5859h2.9688c0.28516-1.4375 0.86328-2.7891 1.6406-3.9648l-2.1055-2.1055 3.2578-3.2578 2.1016 2.1055c1.1953-0.77344 2.5234-1.3516 3.9648-1.6406v-2.9688h4.6055zm-22.148-10.141c1.0625 0.22266 2.0391 0.64063 2.9023 1.1953l1.5508-1.5273 2.3711 2.3711-1.5273 1.5508c0.55469 0.86328 0.97266 1.8359 1.1953 2.9023h2.1719v3.3672h-2.1719c-0.22266 1.0391-0.64453 2.0352-1.1953 2.8984l1.5273 1.5273-2.3711 2.3906-1.5508-1.5508c-0.86328 0.57422-1.8398 0.99609-2.9023 1.2188v2.168h-3.3633v-2.168c-1.0391-0.22266-2.0391-0.64453-2.9023-1.2188l-1.5273 1.5508-2.3906-2.3906 1.5508-1.5273c-0.57422-0.86328-0.99609-1.8594-1.1953-2.8984h-2.1914l-0.003907-3.3711h2.1914c0.19922-1.0625 0.62109-2.0391 1.1953-2.9023l-1.5508-1.5508 2.3906-2.3711 1.5273 1.5273c0.86328-0.55469 1.8594-0.97266 2.9023-1.1953v-2.1719h3.3672zm-1.6797 2.5469c3.1016 0 5.625 2.5234 5.625 5.625 0 3.1016-2.5234 5.625-5.625 5.625-3.1016 0-5.625-2.5234-5.625-5.625 0-3.1016 2.5234-5.625 5.625-5.625zm29.609 17.383h27.418c2.0156 0 3.6562 1.6602 3.6562 3.6523v46.133c0 2.0156-1.6406 3.6523-3.6562 3.6523h-27.418c-1.9922 0-3.6523-1.6367-3.6523-3.6523l-0.003906-46.133c0-1.9922 1.6602-3.6523 3.6562-3.6523zm28.832 3.6523v41.723l-30.23 0.003906v-41.727zm-18.559 46.199c-0.62109 0-1.1289-0.50781-1.1289-1.1289s0.50781-1.1289 1.1289-1.1289h6.8867c0.62109 0 1.1055 0.51172 1.1055 1.1289 0 0.62109-0.48828 1.1289-1.1055 1.1289zm9.4805-52.09v-6.8438h-6.1797v-5.2266h8.4141c1.6406 0 2.9883 1.3516 2.9883 2.9883v9.0781zm-10.676 0v-25.555h-51.754v43.98h36.785v2.2617h-39.023v-51.469c0-1.9492 1.5938-3.543 3.543-3.543h49.164c1.9492 0 3.543 1.5938 3.543 3.543v30.781zm-34.129-28.812c-0.62109 0-1.1289-0.50781-1.1289-1.1289 0-0.62109 0.50781-1.1289 1.1289-1.1289h0.042969c0.62109 0 1.1289 0.50781 1.1289 1.1289 0 0.62109-0.50781 1.1289-1.1289 1.1289zm-5.8008 0c-0.62109 0-1.1289-0.50781-1.1289-1.1289 0-0.62109 0.50781-1.1289 1.1289-1.1289h0.042968c0.62109 0 1.1289 0.50781 1.1289 1.1289 0 0.62109-0.50781 1.1289-1.1289 1.1289zm-5.8242 0c-0.62109 0-1.1094-0.50781-1.1094-1.1289 0-0.62109 0.48828-1.1289 1.1094-1.1289h0.066406c0.62109 0 1.1289 0.50781 1.1289 1.1289 0 0.62109-0.51172 1.1289-1.1289 1.1289zm2.0156 84.488h30.031c-0.79688-0.99609-1.2617-2.2812-1.2617-3.6523v-4.2734h-2.9219v5.2266h-15.969v-5.2266h-5.9141c-2.1914 0-3.9648 1.793-3.9648 3.9648zm12.113-4.9375h11.492v-8.3281h-11.492z" fill-rule="evenodd"/>
</svg>