<?xml version="1.0" encoding="UTF-8"?>
<!DOCTYPE svg PUBLIC "-//W3C//DTD SVG 1.1//EN" "http://www.w3.org/Graphics/SVG/1.1/DTD/svg11.dtd">
<!-- Creator: CorelDRAW -->
<svg xmlns="http://www.w3.org/2000/svg" xml:space="preserve" width="16.8952mm" height="15.9541mm" version="1.1" style="shape-rendering:geometricPrecision; text-rendering:geometricPrecision; image-rendering:optimizeQuality; fill-rule:evenodd; clip-rule:evenodd"
viewBox="0 0 329.95 311.57"
 xmlns:xlink="http://www.w3.org/1999/xlink"
 xmlns:xodm="http://www.corel.com/coreldraw/odm/2003">
 <defs>
  <style type="text/css">
   <![CDATA[
    .fil1 {fill:#727376}
    .fil0 {fill:#727376;fill-rule:nonzero}
   ]]>
  </style>
 </defs>
 <g id="Capa_x0020_1">
  <metadata id="CorelCorpID_0Corel-Layer"/>
  <g id="_2294500870032">
   <path class="fil0" d="M319.93 107.88c-8.82,-2.23 -12.75,-0.8 -14.82,8.6l-19.94 86.96c-3.38,14.47 -1.7,12.91 -17.47,13.04l-146.86 1.14c-16.63,0.27 -14.91,1.79 -19.12,-13.77l-39.06 -138.56c-1.29,-4.91 -4.55,-9.06 -9.02,-11.48l-34.91 -18.78c-10.14,-5 -9.8,-5.33 -15.07,4.56 -5.9,10.67 -5.93,9.36 9.5,18.02l27.9 15.01 40.43 155.53 -20.84 16.76c-2.49,2 -3.92,5.03 -3.89,8.22l0.24 26.05c0.05,5.7 4.67,10.3 10.37,10.33 110.85,0.56 202.71,0.99 246.69,1.19 0.05,0 0.1,-0 0.15,-0 5.68,-0.05 10.29,-4.66 10.32,-10.37 0.03,-5.75 -4.62,-10.45 -10.37,-10.48l-223.52 -1.07c-13.33,0.05 -12.94,0.97 -12.98,-5.93 -0.03,-4.93 -0.23,-4.08 8.79,-11.93l8.42 -6.77c1.62,0.47 3.32,0.78 5.08,0.77l187.59 0.01c0.06,0 0.12,-0 0.18,-0 8.49,-0.08 15.81,-6.02 17.64,-14.32l23.36 -106.18c2.22,-10.12 2.59,-13.67 -8.78,-16.55z"/>
   <circle class="fil1" cx="115.81" cy="301.38" r="10.15"/>
   <circle class="fil1" cx="270.92" cy="301.42" r="10.15"/>
  </g>
  <path class="fil0" d="M139.2 108.51c0.23,0.43 0.31,0.83 0.29,1.25 0.01,0.41 -0.19,0.86 -0.53,1.31 -0.38,0.45 -0.88,0.92 -1.57,1.42 -0.66,0.49 -1.54,1.03 -2.63,1.61 -1.09,0.59 -2.03,1.02 -2.83,1.31 -0.78,0.28 -1.45,0.43 -2.03,0.5 -0.59,0.04 -1.06,-0.05 -1.41,-0.27 -0.33,-0.23 -0.62,-0.52 -0.85,-0.95l-41.22 -73.82c-0.4,-0.61 -0.6,-1.19 -0.64,-1.78 -0.03,-0.57 0.13,-1.17 0.52,-1.78 0.36,-0.61 0.97,-1.2 1.83,-1.84 0.84,-0.62 1.98,-1.3 3.44,-2.08 1.41,-0.76 2.6,-1.29 3.59,-1.62 0.99,-0.32 1.85,-0.51 2.56,-0.47 0.73,0.02 1.3,0.19 1.76,0.53 0.44,0.31 0.83,0.79 1.17,1.43l38.55 75.25zm13.64 19.67c0.91,1.7 1.53,3.19 1.89,4.44 0.38,1.23 0.42,2.38 0.15,3.42 -0.28,1.08 -0.88,2.01 -1.76,2.86 -0.88,0.85 -2.12,1.68 -3.74,2.55 -1.63,0.87 -3.03,1.45 -4.25,1.73 -1.22,0.28 -2.33,0.25 -3.33,-0.14 -1.01,-0.35 -1.92,-1.03 -2.73,-2.03 -0.84,-0.99 -1.73,-2.33 -2.64,-4.04 -0.91,-1.7 -1.55,-3.21 -1.94,-4.51 -0.41,-1.29 -0.47,-2.42 -0.18,-3.4 0.26,-1 0.87,-1.9 1.78,-2.77 0.91,-0.86 2.17,-1.71 3.8,-2.58 1.62,-0.87 3,-1.43 4.19,-1.7 1.2,-0.26 2.29,-0.27 3.31,0.04 0.98,0.3 1.92,0.96 2.76,2.02 0.87,1.04 1.77,2.41 2.68,4.12z"/>
  <path class="fil0" d="M199.3 88.71c0,0.48 -0.12,0.88 -0.33,1.24 -0.18,0.36 -0.57,0.67 -1.09,0.91 -0.54,0.21 -1.21,0.39 -2.05,0.51 -0.82,0.12 -1.84,0.18 -3.08,0.18 -1.24,0 -2.27,-0.06 -3.11,-0.18 -0.82,-0.12 -1.48,-0.3 -2.02,-0.51 -0.54,-0.24 -0.91,-0.54 -1.12,-0.91 -0.18,-0.36 -0.3,-0.75 -0.3,-1.24l-1.51 -84.54c-0.06,-0.72 0.03,-1.33 0.27,-1.87 0.24,-0.51 0.67,-0.97 1.3,-1.33 0.61,-0.36 1.42,-0.6 2.48,-0.76 1.03,-0.15 2.36,-0.21 4.02,-0.21 1.6,0 2.9,0.09 3.93,0.27 1.03,0.18 1.87,0.42 2.48,0.79 0.63,0.36 1.06,0.79 1.3,1.3 0.24,0.48 0.36,1.09 0.36,1.81l-1.51 84.54zm2.75 23.78c0,1.94 -0.15,3.53 -0.42,4.8 -0.24,1.27 -0.76,2.3 -1.48,3.08 -0.76,0.82 -1.72,1.36 -2.9,1.69 -1.18,0.33 -2.66,0.48 -4.5,0.48 -1.84,0 -3.36,-0.15 -4.56,-0.48 -1.21,-0.33 -2.18,-0.88 -2.87,-1.69 -0.72,-0.79 -1.21,-1.81 -1.45,-3.08 -0.27,-1.27 -0.42,-2.87 -0.42,-4.8 0,-1.93 0.15,-3.56 0.42,-4.89 0.24,-1.33 0.73,-2.36 1.45,-3.08 0.7,-0.76 1.66,-1.27 2.87,-1.6 1.21,-0.33 2.72,-0.48 4.56,-0.48 1.84,0 3.32,0.15 4.5,0.48 1.18,0.33 2.14,0.85 2.9,1.6 0.72,0.72 1.24,1.75 1.48,3.08 0.27,1.33 0.42,2.96 0.42,4.89z"/>
  <path class="fil0" d="M258.39 118.6c-0.26,0.41 -0.57,0.68 -0.94,0.87 -0.35,0.21 -0.84,0.26 -1.4,0.19 -0.57,-0.11 -1.23,-0.31 -2.01,-0.66 -0.76,-0.33 -1.66,-0.83 -2.7,-1.49 -1.05,-0.66 -1.89,-1.26 -2.54,-1.81 -0.63,-0.54 -1.09,-1.04 -1.44,-1.51 -0.33,-0.49 -0.48,-0.94 -0.46,-1.36 0.04,-0.4 0.15,-0.8 0.4,-1.21l43.74 -72.36c0.33,-0.65 0.73,-1.11 1.23,-1.44 0.48,-0.31 1.08,-0.46 1.81,-0.43 0.71,0.02 1.52,0.25 2.5,0.68 0.95,0.42 2.11,1.08 3.51,1.96 1.36,0.85 2.41,1.62 3.18,2.32 0.77,0.7 1.36,1.36 1.68,1.98 0.35,0.64 0.48,1.23 0.41,1.79 -0.05,0.54 -0.27,1.11 -0.66,1.73l-46.3 70.75zm-10.33 21.59c-1.03,1.64 -2.01,2.91 -2.92,3.84 -0.88,0.95 -1.86,1.54 -2.89,1.82 -1.07,0.29 -2.18,0.23 -3.36,-0.11 -1.18,-0.35 -2.51,-1.01 -4.07,-1.99 -1.56,-0.98 -2.76,-1.91 -3.61,-2.84 -0.85,-0.93 -1.37,-1.9 -1.53,-2.96 -0.2,-1.05 -0.06,-2.18 0.41,-3.38 0.45,-1.22 1.17,-2.65 2.2,-4.29 1.03,-1.64 2.03,-2.94 2.96,-3.92 0.91,-1 1.87,-1.61 2.87,-1.84 0.99,-0.27 2.08,-0.19 3.28,0.17 1.2,0.36 2.56,1.04 4.12,2.02 1.56,0.98 2.73,1.9 3.55,2.81 0.82,0.91 1.37,1.86 1.6,2.9 0.23,1 0.12,2.14 -0.39,3.4 -0.48,1.27 -1.22,2.73 -2.25,4.37z"/>
 </g>
</svg>
