<?xml version="1.0" encoding="UTF-8"?>
<!DOCTYPE svg PUBLIC "-//W3C//DTD SVG 1.1//EN" "http://www.w3.org/Graphics/SVG/1.1/DTD/svg11.dtd">
<!-- Creator: CorelDRAW -->
<svg xmlns="http://www.w3.org/2000/svg" xml:space="preserve" width="25.186mm" height="27.0675mm" version="1.1" style="shape-rendering:geometricPrecision; text-rendering:geometricPrecision; image-rendering:optimizeQuality; fill-rule:evenodd; clip-rule:evenodd"
viewBox="0 0 217.27 233.5"
 xmlns:xlink="http://www.w3.org/1999/xlink"
 xmlns:xodm="http://www.corel.com/coreldraw/odm/2003">
 <defs>
  <style type="text/css">
   <![CDATA[
    .fil0 {fill:#C63437;fill-rule:nonzero}
   ]]>
  </style>
 </defs>
 <g id="Capa_x0020_1">
  <metadata id="CorelCorpID_0Corel-Layer"/>
  <g id="_3012237374784">
   <path class="fil0" d="M0.21 14.7c0,8.1 6.18,14.68 13.81,14.68 96.84,0 175.62,83.78 175.62,186.76 0,8.11 6.19,14.68 13.81,14.68 7.63,0 13.81,-6.57 13.81,-14.68 0,-119.18 -91.17,-216.14 -203.24,-216.14 -7.63,0 -13.81,6.58 -13.81,14.7z"/>
   <path class="fil0" d="M-0 86.57c0,8.12 6.07,14.69 13.56,14.69 59.69,0 108.25,52.59 108.25,117.24 0,8.11 6.07,14.69 13.56,14.69 7.49,0 13.56,-6.58 13.56,-14.69 0,-80.84 -60.72,-146.61 -135.37,-146.61 -7.49,0 -13.56,6.57 -13.56,14.68z"/>
   <path class="fil0" d="M0.03 155.93c-0.06,5.99 0.69,11.76 4.15,11.65 30.36,0 55.06,26.75 55.06,59.64 0,4.13 6.38,6.29 11.77,6.29 7.16,0 9.1,-8.47 9.1,-12.6 0,-41.12 -30.89,-74.58 -68.86,-74.58 -3.81,0 -11.22,1.56 -11.22,9.6z"/>
  </g>
 </g>
</svg>
