<?xml version="1.0" encoding="UTF-8"?>
<!DOCTYPE svg PUBLIC "-//W3C//DTD SVG 1.1//EN" "http://www.w3.org/Graphics/SVG/1.1/DTD/svg11.dtd">
<!-- Creator: CorelDRAW -->
<svg xmlns="http://www.w3.org/2000/svg" xml:space="preserve" width="30.112mm" height="26.8347mm" version="1.1" style="shape-rendering:geometricPrecision; text-rendering:geometricPrecision; image-rendering:optimizeQuality; fill-rule:evenodd; clip-rule:evenodd"
viewBox="0 0 65.25 58.14"
 xmlns:xlink="http://www.w3.org/1999/xlink"
 xmlns:xodm="http://www.corel.com/coreldraw/odm/2003">
 <defs>
  <style type="text/css">
   <![CDATA[
    .fil0 {fill:#C63437;fill-rule:nonzero}
   ]]>
  </style>
 </defs>
 <g id="Capa_x0020_1">
  <metadata id="CorelCorpID_0Corel-Layer"/>
  <g id="_2186445272560">
   <g>
    <path class="fil0" d="M49.1 3.65c6.39,0 11.57,5.17 11.57,11.57 0,3.68 -1.72,7.07 -4.64,9.26 5.16,2.11 9.22,6.71 9.22,12.51 0,1.9 -0.47,3.79 -1.32,5.49 -0.52,1.05 -0.9,1.68 -2.37,0.82 -1.64,-0.96 -1.43,-1.35 -0.88,-2.44 0.61,-1.23 0.92,-2.49 0.92,-3.87 0,-6.45 -6.65,-10.21 -12.5,-10.21 -2.84,0 -5.82,0.83 -8.17,2.49 -1.04,0.73 -2.04,1.74 -2.76,2.79 -0.88,-1.06 -1.86,-1.94 -2.65,-2.54 1.69,-2.27 4.04,-3.97 6.66,-5.05 -2.89,-2.18 -4.63,-5.6 -4.63,-9.25 0,-6.39 5.18,-11.57 11.56,-11.57zm-8.09 39.27c0,2.4 -0.59,4.78 -1.67,6.92 -0.52,1.05 -0.88,1.74 -2.39,0.81 -1.61,-0.99 -1.4,-1.35 -0.86,-2.43 0.84,-1.67 1.27,-3.43 1.27,-5.3 0,-8.71 -8.94,-13.86 -16.86,-13.86 -7.91,0 -16.84,5.15 -16.84,13.86 0,4.3 0.33,4.29 6.62,4.29l15.65 0 -3.87 -3.87c-0.88,-0.88 -1.25,-1.44 0.08,-2.62 1.31,-1.17 1.68,-0.78 2.5,0.05l6.85 6.85c0.74,0.74 0.8,1.88 0.05,2.63l-7.08 7.08c-0.83,0.83 -1.28,1.31 -2.52,0.03 -1.34,-1.39 -0.94,-1.74 -0.07,-2.61l3.89 -3.89 -20.58 0c-4.55,0 -5.2,-4.07 -5.2,-7.94 0,-7.72 5.7,-13.72 12.66,-16.19 -4.16,-2.65 -6.69,-7.27 -6.69,-12.22 0,-8.01 6.5,-14.51 14.51,-14.51 8.01,0 14.51,6.5 14.51,14.51 0,4.95 -2.55,9.56 -6.69,12.21 7.22,2.55 12.7,7.98 12.7,16.2zm-20.52 -39.27c-6,0 -10.86,4.86 -10.86,10.86 0,6 4.85,10.86 10.86,10.86 6,0 10.86,-4.85 10.86,-10.86 0,-5.99 -4.87,-10.86 -10.86,-10.86zm28.62 3.65c-4.36,0 -7.91,3.55 -7.91,7.92 0,4.37 3.54,7.91 7.91,7.91 4.38,0 7.92,-3.53 7.92,-7.91 0,-4.38 -3.54,-7.92 -7.92,-7.92z"/>
   </g>
  </g>
 </g>
</svg>
