<svg xmlns="http://www.w3.org/2000/svg" version="1.1" viewBox="3.13 3.12 93.75 93.75">
 <path d="m89.469 26.562h-31.422c-0.85938 0-1.5625 0.70312-1.5625 1.5625s0.70312 1.5625 1.5625 1.5625h31.422c2.3594 0 4.2812 1.9219 4.2812 4.2812v39.438c0 2.3594-1.9219 4.2812-4.2812 4.2812h-64.266c-2.3594 0-4.2812-1.9219-4.2812-4.2812v-14.281c0-0.85938-0.70312-1.5625-1.5625-1.5625s-1.5625 0.70312-1.5625 1.5625v14.281c0 4.0781 3.3281 7.4062 7.4062 7.4062h23.859l-2.8438 5.6406h-7.1875c-2.8438 0-5.1719 2.3125-5.1719 5.25s2.3281 5.1719 5.1719 5.1719h36.609c2.8594 0 5.1719-2.3125 5.1719-5.25s-2.3125-5.1719-5.1719-5.1719h-7.1719l-2.8594-5.6406h23.859c4.0781 0 7.4062-3.3281 7.4062-7.4062v-39.438c0-4.0781-3.3281-7.4062-7.4062-7.4062zm-11.781 65.141c0 1.1406-0.92188 2.0469-2.0469 2.0469h-36.609c-1.125 0-2.0469-0.90625-2.0469-2.125 0-1.1406 0.92188-2.0469 2.0469-2.0469h36.609c1.125 0 2.0469 0.90625 2.0469 2.125z"/>
 <path d="m53.453 65.594c0 2.5938 2.0938 4.6875 4.6875 4.6875h23.828c2.5781 0 4.6875-2.0938 4.6875-4.6875v-23.828c0-2.5781-2.1094-4.6875-4.6875-4.6875h-23.828c-2.5938 0-4.6875 2.1094-4.6875 4.6875zm25.578-18.359c0 1.4062-1.1406 2.5469-2.5312 2.5469s-2.5469-1.1406-2.5469-2.5469 1.1406-2.5312 2.5469-2.5312 2.5312 1.1406 2.5312 2.5312zm-16.484 3.1562c1.1719-1.1875 3.0938-1.1719 4.2656 0l8.1406 8.1406 2.625-2.7656c1.1406-1.1406 3.1406-1.1406 4.2812 0l1.6719 1.6719v4.4219l-3.8906-3.8906-2.625 2.7656c-1.1719 1.1875-3.0938 1.1875-4.2656 0l-8.1406-8.1406-8.0312 8.1719v-4.4219z"/>
 <path d="m15.266 24.281h-2.0938c0.54688-3.6562 2.2969-7 5-9.5781 1.75-1.6719 3.8438-2.9375 6.1094-3.7031v1.375c0 0.875 0.70312 1.5625 1.5625 1.5625h7.6875c0.85938 0 1.5625-0.6875 1.5625-1.5625v-1.375c5.875 2 10.172 7.125 11.109 13.281h-2.0938c-0.85938 0-1.5625 0.70312-1.5625 1.5625v7.6875c0 0.85938 0.70312 1.5625 1.5625 1.5625h7.6875c0.875 0 1.5625-0.70312 1.5625-1.5625v-7.6875c0-0.85938-0.6875-1.5625-1.5625-1.5625h-2.4531c-0.73438-5.9062-4.1094-11.062-8.9688-14.188h5.2969c0.67188 2.2188 2.7344 3.8438 5.1719 3.8438 2.9844 0 5.4062-2.4219 5.4062-5.4062s-2.4219-5.4062-5.4062-5.4062c-2.4375 0-4.5 1.625-5.1719 3.8438h-10.578v-2.2812c0-0.85938-0.70312-1.5625-1.5625-1.5625h-7.6875c-0.85938 0-1.5625 0.70312-1.5625 1.5625v2.2812h-10.578c-0.67188-2.2188-2.7344-3.8438-5.1719-3.8438-2.9844 0-5.4062 2.4219-5.4062 5.4062s2.4219 5.4062 5.4062 5.4062c2.4375 0 4.5-1.625 5.1719-3.8438h5.3125c-1.0625 0.67188-2.0781 1.4531-3 2.3438-3.3281 3.1562-5.4219 7.3125-5.9844 11.844h-2.4531c-0.875 0-1.5625 0.70312-1.5625 1.5625v7.6875c0 0.85938 0.6875 1.5625 1.5625 1.5625h7.6875c0.85938 0 1.5625-0.70312 1.5625-1.5625v-7.6875c0-0.85938-0.70312-1.5625-1.5625-1.5625zm35.578-18.031c1.25 0 2.2812 1.0312 2.2812 2.2812s-1.0312 2.2812-2.2812 2.2812-2.2812-1.0156-2.2812-2.2812 1.0156-2.2812 2.2812-2.2812zm-42.312 4.5625c-1.25 0-2.2812-1.0156-2.2812-2.2812s1.0312-2.2812 2.2812-2.2812 2.2812 1.0312 2.2812 2.2812-1.0156 2.2812-2.2812 2.2812z"/>
 <path d="m22.203 48.766v5.9219c0 0.85938 0.70312 1.5625 1.5625 1.5625h11.844c0.85938 0 1.5625-0.70312 1.5625-1.5625v-5.9219-0.015625c0-7.0781 4.4375-11.641 4.4688-11.688 0.53125-0.53125 0.60938-1.3594 0.1875-1.9844l-10.844-15.875c-0.10938-0.15625-0.23438-0.28125-0.39062-0.39062 0 0 0-0.015625-0.03125-0.03125-0.03125-0.03125-0.078125-0.03125-0.10938-0.046875-0.125-0.0625-0.23438-0.125-0.375-0.15625-0.078125-0.015625-0.14062-0.03125-0.21875-0.03125h-0.34375c-0.078125 0-0.14062 0-0.21875 0.03125h-0.09375c-0.09375 0.03125-0.17188 0.078125-0.26562 0.125-0.046875 0.03125-0.10938 0.046875-0.15625 0.078125-0.15625 0.10938-0.29688 0.23438-0.40625 0.39062l-0.015625 0.015625-10.844 15.875c-0.42188 0.60938-0.34375 1.4531 0.1875 1.9844 0.046875 0.046875 4.4688 4.6094 4.4688 11.688v0.015625zm7.4844-13.219c0.76562 0 1.3906 0.625 1.3906 1.3906s-0.625 1.3906-1.3906 1.3906-1.3906-0.625-1.3906-1.3906 0.625-1.3906 1.3906-1.3906zm-1.5625-10.422v7.5781c-1.7344 0.64062-2.9531 2.2969-2.9531 4.2344 0 2.5 2.0156 4.5156 4.5156 4.5156s4.5156-2.0156 4.5156-4.5156c0-1.9375-1.2188-3.5938-2.9531-4.2344v-7.5781l7.3125 10.719c-1.3906 1.7656-4 5.7656-4.4375 11.359h-8.8906c-0.4375-5.5938-3.0312-9.6094-4.4375-11.359l7.3125-10.719z"/></svg>