<?xml version="1.0" encoding="UTF-8"?>
<!DOCTYPE svg PUBLIC "-//W3C//DTD SVG 1.1//EN" "http://www.w3.org/Graphics/SVG/1.1/DTD/svg11.dtd">
<!-- Creator: CorelDRAW -->
<svg xmlns="http://www.w3.org/2000/svg" xml:space="preserve" width="24.9823mm" height="27.0328mm" version="1.1" style="shape-rendering:geometricPrecision; text-rendering:geometricPrecision; image-rendering:optimizeQuality; fill-rule:evenodd; clip-rule:evenodd"
viewBox="0 0 72.91 78.89"
 xmlns:xlink="http://www.w3.org/1999/xlink"
 xmlns:xodm="http://www.corel.com/coreldraw/odm/2003">
 <defs>
  <style type="text/css">
   <![CDATA[
    .fil0 {fill:#4D4E50;fill-rule:nonzero}
   ]]>
  </style>
 </defs>
 <g id="Capa_x0020_1">
  <metadata id="CorelCorpID_0Corel-Layer"/>
  <path class="fil0" d="M68.56 40.48c2.12,-0.04 3.51,-1.22 4.12,-3.06 0.58,-1.74 -0.01,-3.83 -1.31,-5.09l-8.02 -7.76 0 -12.9c0,-1.51 -1.09,-2.73 -2.44,-2.73l-5.08 0c-1.35,0 -2.45,1.22 -2.45,2.73l0 3.25 -14.25 -13.8c-1.54,-1.49 -3.83,-1.49 -5.36,0l-32.36 31.33c-1.29,1.25 -1.75,3.27 -1.15,5.05 0.6,1.79 2.13,2.96 3.84,2.97l6.28 0.03 -0.12 24.42c-0.07,14.95 -0.83,13.93 26.45,13.95 27.57,0.02 26.66,0.79 26.76,-14.13l0.17 -24.24c0,0 3.06,0.01 4.92,-0.02zm-30.18 -29.11c5.36,5.61 15.93,14.92 22.81,21.55 1.22,1.17 2.09,1.86 0.35,1.86 -2.33,0 -5.56,0 -5.56,0 0.02,14.44 0.34,24.79 0.16,30.43 -0.22,7 0.27,6.57 -19.42,6.6 -17.87,0.03 -18.85,1.23 -18.82,-6.59 0.02,-5.68 -0.15,-15.9 -0.05,-30.44 0,0 -2.96,-0.02 -5.17,-0.02 -1.83,0 -1.38,-0.74 0.1,-2.21l22.45 -21.38c1.24,-1.23 1.74,-1.25 3.13,0.2z"/>
 </g>
</svg>
