<?xml version="1.0" encoding="UTF-8"?>
<!DOCTYPE svg PUBLIC "-//W3C//DTD SVG 1.1//EN" "http://www.w3.org/Graphics/SVG/1.1/DTD/svg11.dtd">
<!-- Creator: CorelDRAW -->
<svg xmlns="http://www.w3.org/2000/svg" xml:space="preserve" width="25.186mm" height="27.067mm" version="1.1" style="shape-rendering:geometricPrecision; text-rendering:geometricPrecision; image-rendering:optimizeQuality; fill-rule:evenodd; clip-rule:evenodd"
viewBox="0 0 136.94 147.16"
 xmlns:xlink="http://www.w3.org/1999/xlink"
 xmlns:xodm="http://www.corel.com/coreldraw/odm/2003">
 <defs>
  <style type="text/css">
   <![CDATA[
    .fil0 {fill:#C63437;fill-rule:nonzero}
   ]]>
  </style>
 </defs>
 <g id="Capa_x0020_1">
  <metadata id="CorelCorpID_0Corel-Layer"/>
  <path class="fil0" d="M128.77 75.51c3.99,-0.08 6.59,-2.28 7.74,-5.71 1.09,-3.24 -0.02,-7.14 -2.47,-9.49l-15.06 -14.47 0 -24.07c0,-2.82 -2.05,-5.1 -4.58,-5.1l-9.53 0c-2.53,0 -4.6,2.29 -4.6,5.1l0 6.07 -26.76 -25.75c-2.9,-2.79 -7.19,-2.78 -10.07,0l-60.78 58.44c-2.42,2.33 -3.3,6.1 -2.17,9.43 1.13,3.33 4,5.52 7.21,5.54l11.79 0.06 -0.23 45.56c-0.14,27.89 -1.55,25.99 49.68,26.02 51.77,0.04 50.06,1.47 50.26,-26.37l0.32 -45.22c0,0 5.76,0.02 9.25,-0.04zm-56.68 -54.29c10.07,10.47 29.93,27.82 42.85,40.2 2.29,2.19 3.92,3.47 0.66,3.47 -4.38,0 -10.44,0 -10.44,0 0.03,26.93 0.63,45.7 0.31,56.21 -0.41,13.06 0.5,12.26 -36.47,12.32 -33.56,0.05 -35.41,2.29 -35.35,-12.28 0.04,-10.6 -0.28,-29.12 -0.08,-56.24 0,0 -5.55,-0.05 -9.71,-0.04 -3.43,0.01 -2.6,-1.39 0.18,-4.13l42.17 -39.88c2.33,-2.29 3.27,-2.33 5.88,0.37z"/>
 </g>
</svg>
