<?xml version="1.0" encoding="UTF-8"?>
<!DOCTYPE svg PUBLIC "-//W3C//DTD SVG 1.1//EN" "http://www.w3.org/Graphics/SVG/1.1/DTD/svg11.dtd">
<!-- Creator: CorelDRAW -->
<svg xmlns="http://www.w3.org/2000/svg" xml:space="preserve" width="25.186mm" height="27.067mm" version="1.1" style="shape-rendering:geometricPrecision; text-rendering:geometricPrecision; image-rendering:optimizeQuality; fill-rule:evenodd; clip-rule:evenodd"
viewBox="0 0 156.38 168.06"
 xmlns:xlink="http://www.w3.org/1999/xlink"
 xmlns:xodm="http://www.corel.com/coreldraw/odm/2003">
 <defs>
  <style type="text/css">
   <![CDATA[
    .fil0 {fill:#C63437;fill-rule:nonzero}
   ]]>
  </style>
 </defs>
 <g id="Capa_x0020_1">
  <metadata id="CorelCorpID_0Corel-Layer"/>
  <g id="_3047553867168">
   <path class="fil0" d="M78.19 78.95c25.85,0 46.81,-17.68 46.81,-39.48 0,-21.8 -20.96,-39.47 -46.81,-39.47 -25.85,0 -46.81,17.68 -46.81,39.47 0.03,21.77 20.96,39.45 46.81,39.48l0 0zm0 -65.76c17.21,0 31.21,11.77 31.21,26.32 0,14.54 -13.96,26.32 -31.21,26.32 -17.21,0 -31.21,-11.77 -31.21,-26.32 0,-14.51 13.96,-26.32 31.21,-26.32z"/>
   <path class="fil0" d="M78.15 88.45c-43.14,0.03 -78.12,32.1 -78.15,71.64 0,4.41 3.88,7.96 8.69,7.96 4.81,0 8.69,-3.55 8.69,-7.96 0,-30.76 27.22,-55.75 60.81,-55.75 33.56,0 60.81,24.95 60.81,55.75 0,4.41 3.88,7.96 8.69,7.96 4.81,0 8.69,-3.55 8.69,-7.96 -0.04,-39.55 -35.01,-71.61 -78.15,-71.64l0 0 -0.08 0z"/>
  </g>
 </g>
</svg>
