<?xml version="1.0" encoding="UTF-8"?>
<!DOCTYPE svg PUBLIC "-//W3C//DTD SVG 1.1//EN" "http://www.w3.org/Graphics/SVG/1.1/DTD/svg11.dtd">
<!-- Creator: CorelDRAW -->
<svg xmlns="http://www.w3.org/2000/svg" xml:space="preserve" width="35.4331mm" height="27.125mm" version="1.1" style="shape-rendering:geometricPrecision; text-rendering:geometricPrecision; image-rendering:optimizeQuality; fill-rule:evenodd; clip-rule:evenodd"
viewBox="0 0 708.25 542.18"
 xmlns:xlink="http://www.w3.org/1999/xlink"
 xmlns:xodm="http://www.corel.com/coreldraw/odm/2003">
 <defs>
  <style type="text/css">
   <![CDATA[
    .fil0 {fill:#C63437}
   ]]>
  </style>
 </defs>
 <g id="Capa_x0020_1">
  <metadata id="CorelCorpID_0Corel-Layer"/>
  <path class="fil0" d="M661.03 426.97l0 21.18c0,51.93 -12.88,94.04 -78.06,94.04l-506.9 0c-65.18,0 -76.07,-42.11 -76.07,-94.04l0 -263.32c0,-51.93 10.89,-94.04 76.07,-94.04l506.91 0c65.18,0 78.05,42.11 78.05,94.04l0 21.18c-33.73,-0.04 -117.51,0.02 -153.54,0 -34.84,-0.02 -131.85,20.46 -131.85,108.07 -0.5,92.42 89.23,112.89 129.65,112.89 35.8,0 117.17,0.01 155.75,0.01zm-268.92 -110.48c0,51.93 52.86,94.04 118.04,94.04l151.27 0c39.12,0 46.84,-15.27 46.84,-46.44l0 -95.21c0,-31.17 -7.71,-46.44 -46.84,-46.44 -43.86,0 -96.5,0 -151.27,0 -65.16,0 -118.05,42.13 -118.05,94.05l0.01 0zm118.05 -56.43c54.77,0 103.41,0 147.27,0 13.03,0 15.61,8.42 15.61,18.81 0,0 0,75.23 0,75.23 0,10.39 -2.58,18.81 -15.61,18.81l-147.27 0c-53.11,0 -76.78,-30.13 -76.82,-56.43 -0.04,-26.3 24.38,-56.42 76.82,-56.42zm-0.01 37.62c13.04,0 21.61,8.42 21.61,18.81 0,10.39 -8.57,18.81 -21.61,18.81 -13.04,0 -23.61,-8.42 -23.61,-18.81 0,-10.39 10.57,-18.81 23.61,-18.81zm-301.06 -221.55c219.56,-82.4 218.29,-90.19 258.8,-59.79l75.05 59.79 -333.85 0z"/>
 </g>
</svg>
