<?xml version="1.0" encoding="UTF-8"?>
<!DOCTYPE svg PUBLIC "-//W3C//DTD SVG 1.1//EN" "http://www.w3.org/Graphics/SVG/1.1/DTD/svg11.dtd">
<!-- Creator: CorelDRAW -->
<svg xmlns="http://www.w3.org/2000/svg" xml:space="preserve" width="35.4488mm" height="27.125mm" version="1.1" style="shape-rendering:geometricPrecision; text-rendering:geometricPrecision; image-rendering:optimizeQuality; fill-rule:evenodd; clip-rule:evenodd"
viewBox="0 0 101.82 77.91"
 xmlns:xlink="http://www.w3.org/1999/xlink"
 xmlns:xodm="http://www.corel.com/coreldraw/odm/2003">
 <defs>
  <style type="text/css">
   <![CDATA[
    .fil0 {fill:#C63437}
   ]]>
  </style>
 </defs>
 <g id="Capa_x0020_1">
  <metadata id="CorelCorpID_0Corel-Layer"/>
  <path class="fil0" d="M95.03 61.35l0 3.04c0,7.47 -1.85,13.52 -11.22,13.52l-72.87 0c-9.37,0 -10.94,-6.05 -10.94,-13.52l0 -37.86c0,-7.47 1.57,-13.52 10.94,-13.52l72.88 0c9.37,0 11.22,6.05 11.22,13.52l0 3.04c-4.85,-0.01 -16.89,0 -22.07,0 -5.01,-0 -18.96,2.94 -18.96,15.54 -0.07,13.29 12.83,16.23 18.64,16.23 5.15,0 16.84,0 22.39,0zm-79.61 10.23c5.9,0 56.26,0 64.01,0 9,0 10.17,-0.7 10.43,-5.9 -6.51,-0.01 -13.74,-0 -17.23,-0 -9.93,0 -23.26,-4.51 -23.34,-20.85 -0.07,-14.87 14.35,-19.57 23.55,-19.57 9.58,0 10.43,0 17.02,0 -0,-5.17 -0.38,-6.91 -6.06,-6.95 -3.43,-0.03 -59.79,-0.15 -68.57,-0.07 -8.78,0.09 -8.65,3.84 -8.65,8.52 0,11.12 0.01,29.41 0,37.46 -0,3.87 -0.82,7.37 8.83,7.37zm40.94 -26.12c0,7.47 7.02,13.52 16.4,13.52l22.32 0c5.62,0 6.73,-2.2 6.73,-6.68l0 -13.69c0,-4.48 -1.11,-6.68 -6.73,-6.68l-21.75 0c-9.37,0 -16.97,6.06 -16.97,13.52l0 0zm15.82 -8.97l22.9 0c1.87,0 2.24,1.21 2.24,2.7l0 12.54c0,1.49 -0.37,2.7 -2.24,2.7l-22.9 0c-7.64,0 -11.04,-5.19 -11.04,-8.97 -0.01,-3.78 3.5,-8.97 11.04,-8.97zm1.15 6.27c1.87,0 3.11,1.21 3.11,2.7 0,1.49 -1.23,2.7 -3.11,2.7 -1.87,0 -3.39,-1.21 -3.39,-2.7 0,-1.49 1.52,-2.7 3.39,-2.7zm-43.28 -31.56c34.03,-12.89 31.38,-12.97 37.21,-8.6l10.79 8.6 -7.39 0c-3.46,-2.78 -6.28,-5.02 -7.84,-6.19 -1.72,-1.29 -0.07,-1.63 -22.03,6.19l-10.73 0z"/>
 </g>
</svg>
