<?xml version="1.0" encoding="UTF-8"?>
<!DOCTYPE svg PUBLIC "-//W3C//DTD SVG 1.1//EN" "http://www.w3.org/Graphics/SVG/1.1/DTD/svg11.dtd">
<!-- Creator: CorelDRAW -->
<svg xmlns="http://www.w3.org/2000/svg" xml:space="preserve" width="30.7202mm" height="26.7254mm" version="1.1" style="shape-rendering:geometricPrecision; text-rendering:geometricPrecision; image-rendering:optimizeQuality; fill-rule:evenodd; clip-rule:evenodd"
viewBox="0 0 71.99 62.63"
 xmlns:xlink="http://www.w3.org/1999/xlink"
 xmlns:xodm="http://www.corel.com/coreldraw/odm/2003">
 <defs>
  <style type="text/css">
   <![CDATA[
    .fil0 {fill:#C63437;fill-rule:nonzero}
   ]]>
  </style>
 </defs>
 <g id="Capa_x0020_1">
  <metadata id="CorelCorpID_0Corel-Layer"/>
  <path class="fil0" d="M43.78 56.13c-8.82,8.8 -7.1,8.81 -17.44,-0.95 -10.2,-9.87 -25.78,-21.29 -26.34,-36.58l0 -0.99c0,-0.02 0,-0.05 0,-0.07 0,-4.71 1.95,-9.22 5.39,-12.45 3.38,-3.07 7.75,-4.89 12.32,-4.93 11.68,-0.09 16.44,8.52 17.89,8.53 1.49,0 6.4,-8.71 16.41,-8.71 3.11,0 6.18,0.73 8.95,2.14 2.89,1.44 5.4,3.55 7.33,6.14 1.95,2.6 3.2,5.67 3.59,8.9 0.07,0.65 0.1,1.3 0.1,1.95 0,2.93 -0.71,5.81 -2.05,8.41 -3.87,7.49 -18.69,20.73 -26.16,28.6zm22.7 -30.33c1.06,-2.05 1.62,-4.33 1.62,-6.64 0,-0.52 -0.03,-1.03 -0.08,-1.54 -0.31,-2.55 -1.28,-4.97 -2.83,-7.02 -1.56,-2.1 -3.6,-3.81 -5.94,-4.97 -2.23,-1.13 -4.7,-1.72 -7.2,-1.72 -6.36,0 -9.58,3.21 -13.67,7.56 -2.83,2.89 -2.52,2.87 -5.33,0.18 -4.97,-4.88 -7.87,-7.59 -15.21,-7.59 -3.62,0.08 -7.1,1.46 -9.79,3.89 -2.65,2.5 -4.16,5.99 -4.16,9.64 0,0.03 0,0.06 0,0.08l0 0.8c0.48,13.53 15.93,25.02 25.14,33.91 7.3,7.04 5.84,7.04 11.97,1.02 5.49,-6.04 23.1,-21.88 25.49,-27.6z"/>
 </g>
</svg>
