<?xml version="1.0" encoding="UTF-8"?>
<!DOCTYPE svg PUBLIC "-//W3C//DTD SVG 1.1//EN" "http://www.w3.org/Graphics/SVG/1.1/DTD/svg11.dtd">
<!-- Creator: CorelDRAW (Versión OEM) -->
<svg xmlns="http://www.w3.org/2000/svg" xml:space="preserve" width="34.4914mm" height="34.4914mm" version="1.1" style="shape-rendering:geometricPrecision; text-rendering:geometricPrecision; image-rendering:optimizeQuality; fill-rule:evenodd; clip-rule:evenodd"
viewBox="0 0 229.05 229.05"
 xmlns:xlink="http://www.w3.org/1999/xlink"
 xmlns:xodm="http://www.corel.com/coreldraw/odm/2003">
 <defs>
  <style type="text/css">
   <![CDATA[
    .fil0 {fill:none}
    .fil2 {fill:#F20A06}
    .fil1 {fill:#F70A04}
   ]]>
  </style>
 </defs>
 <g id="Capa_x0020_1">
  <metadata id="CorelCorpID_0Corel-Layer"/>
  <rect class="fil0" width="229.05" height="229.05"/>
  <path class="fil1" d="M184.78 144.61c-24.03,-12.57 -11.08,-6.12 -32.67,15.52 -32.06,27.47 -78.17,15.16 -93.47,-23.24 -11.6,-29.12 -0.03,-61.57 26.27,-74.76 5.93,-2.97 6.16,-5.59 2,-19.61 -3.69,-12.43 -4.74,-16.8 -11.96,-13.47 -44.57,20.5 -67.68,76.15 -48.91,121.41 20.49,49.33 72.62,71.01 122.07,50.78 10.91,-4.75 22.81,-11.34 31.63,-21.53 6.53,-7.54 11.67,-15.46 14.14,-19.41 4.21,-6.71 3.93,-8.87 -9.1,-15.68zm-75.06 -88.4c19.34,-2.45 20.18,6.8 21.58,-16.03 1.18,-19.21 -2.06,-19.33 -23.87,-18.16 -16.7,0.6 -14.37,2.41 -9.78,18.77 3.6,12.83 3.43,16.52 12.07,15.43z"/>
  <path class="fil2" d="M195.36 115.93c10.61,-13.65 26.63,-27.92 5.75,-22.69 -15.74,3.94 -33.38,8.23 -48.8,12.48 -8.21,2.26 -9.51,4.74 -1.1,9 8.18,4.14 32.95,18.63 45.39,24.72 17.65,8.64 3.95,-10.38 -1.24,-23.51z"/>
 </g>
</svg>
