<?xml version="1.0" encoding="UTF-8"?>
<!DOCTYPE svg PUBLIC "-//W3C//DTD SVG 1.1//EN" "http://www.w3.org/Graphics/SVG/1.1/DTD/svg11.dtd">
<!-- Creator: CorelDRAW -->
<svg xmlns="http://www.w3.org/2000/svg" xml:space="preserve" width="31.3934mm" height="26.7254mm" version="1.1" style="shape-rendering:geometricPrecision; text-rendering:geometricPrecision; image-rendering:optimizeQuality; fill-rule:evenodd; clip-rule:evenodd"
viewBox="0 0 1228.7 1046"
 xmlns:xlink="http://www.w3.org/1999/xlink"
 xmlns:xodm="http://www.corel.com/coreldraw/odm/2003">
 <defs>
  <style type="text/css">
   <![CDATA[
    .fil0 {fill:#4B4B4D;fill-rule:nonzero}
   ]]>
  </style>
 </defs>
 <g id="Capa_x0020_1">
  <metadata id="CorelCorpID_0Corel-Layer"/>
  <path class="fil0" d="M731.25 937.57c-147.27,147.01 -118.56,147.2 -291.28,-15.8 -24.3,-23.5 -52.5,-49.2 -81.79,-75.89 -158.89,-144.59 -350.28,-319.08 -358.18,-535.06l0 -16.5c0,-0.34 0,-0.76 0,-1.11 0,-78.73 32.61,-154.04 90,-207.89 56.38,-51.24 129.5,-81.7 205.69,-82.3 195.1,-1.52 274.53,142.36 298.88,142.39 24.91,0.04 106.88,-145.42 274.13,-145.42 51.91,0 103.22,12.27 149.53,35.73 48.23,24.06 90.2,59.22 122.37,102.49 32.61,43.37 53.39,94.72 60.01,148.61 1.14,10.78 1.73,21.7 1.73,32.56 0,48.89 -11.75,97.12 -34.23,140.52 -4.1,8 -8.8,16.5 -13.9,25.2l-4.5 7.4c50.81,56.25 78.99,129.51 78.99,205.35 0,169.23 -137.24,306.48 -306.48,306.48 -69.37,0 -136.76,-23.57 -190.97,-66.79l-0 0.02zm152.19 -355.98c0,-0.07 0,-0.16 0,-0.23 0,-21.08 1.69,-38.28 38.4,-38.28 37.43,0 38.13,17.24 38.5,38.5l0 77.8 77.5 0.01c0.04,-0.01 0.07,-0.01 0.1,-0.01 21.42,0 38.89,-1.31 38.49,38 -0.39,39.02 -16.19,38.86 -38.4,39.3l-76.89 0.01 0 77.5c-0.13,24.51 -1.42,38.6 -38.4,38.59 -37.95,-0.01 -38.7,-15.78 -38.7,-38.5l0 -77.48 -78.09 0c-21.8,-0.13 -38.8,2.7 -38.8,-38.61 0,-37 16.77,-38.99 38.32,-38.99 0.02,0 0.06,0 0.09,0l77.79 0.01 0 -77.6 0.1 0zm216.99 -133.09c3.4,-5.8 6.7,-11.7 10,-17.6 17.71,-34.23 26.98,-72.31 26.98,-110.87 0,-8.6 -0.47,-17.26 -1.38,-25.8 -5.12,-42.58 -21.43,-83.06 -47.19,-117.31 -26.05,-35.09 -60.1,-63.61 -99.2,-83.08 -37.29,-18.9 -78.5,-28.74 -120.29,-28.74 -106.27,0 -159.93,53.56 -228.4,126.32 -47.24,48.34 -42.02,47.95 -88.99,3.01 -82.99,-81.51 -131.4,-126.69 -253.98,-126.69 -60.52,1.3 -118.66,24.41 -163.59,65 -44.31,41.78 -69.5,100.05 -69.5,160.97 0,0.46 0,0.95 0,1.41l0 13.4c6.7,188.49 187.18,352.97 336.67,489.26 28.9,26.3 56.7,51.6 83.19,77.2 121.92,117.59 97.6,117.5 199.99,17 -44.61,-54.67 -69.02,-123.21 -69.02,-193.8 0,-169.28 137.29,-306.57 306.58,-306.57 63.78,0 125.98,19.91 177.9,56.89l0.22 0.01zm-7.6 78.7c-45.24,-45.24 -106.68,-70.7 -170.68,-70.7 -133.29,0 -241.38,108.09 -241.38,241.38 0,133.29 108.09,241.38 241.38,241.38 133.29,0 241.38,-108.09 241.38,-241.38 0,-0.07 0,-0.25 0,-0.33 0,-63.91 -25.47,-125.24 -70.7,-170.35l0 0.01z"/>
 </g>
</svg>
