<?xml version="1.0" encoding="UTF-8"?>
<!DOCTYPE svg PUBLIC "-//W3C//DTD SVG 1.1//EN" "http://www.w3.org/Graphics/SVG/1.1/DTD/svg11.dtd">
<!-- Creator: CorelDRAW -->
<svg xmlns="http://www.w3.org/2000/svg" xml:space="preserve" width="27.3512mm" height="27.1858mm" version="1.1" style="shape-rendering:geometricPrecision; text-rendering:geometricPrecision; image-rendering:optimizeQuality; fill-rule:evenodd; clip-rule:evenodd"
viewBox="0 0 35.39 35.18"
 xmlns:xlink="http://www.w3.org/1999/xlink"
 xmlns:xodm="http://www.corel.com/coreldraw/odm/2003">
 <defs>
  <style type="text/css">
   <![CDATA[
    .fil0 {fill:#C63437;fill-rule:nonzero}
   ]]>
  </style>
 </defs>
 <g id="Capa_x0020_1">
  <metadata id="CorelCorpID_0Corel-Layer"/>
  <g id="_1973442705312">
   <path class="fil0" d="M4.27 22.56l0 10.77c0,1.02 0.8,1.84 1.78,1.84 0.98,0 1.78,-0.83 1.78,-1.85l0 -10.77 -3.48 0c-0.02,0 -0.05,-0 -0.07,-0z"/>
   <polygon class="fil0" points="22.6,1.4 8.48,6.5 8.48,22.17 22.6,27.27 "/>
   <path class="fil0" d="M-0 10.98l0 6.7c0,2.4 0.65,4.34 4.35,4.34l3.48 0 0 -15.39 -3.48 0c-3.43,0 -4.34,1.95 -4.34,4.35l-0 -0z"/>
   <path class="fil0" d="M23.26 1.18l0 26.3c0,0 0,0 0,0 0,1.57 1.87,1.57 1.87,0 0,-0 0,-0 0,-0l0 -26.3c-0,-1.58 -1.87,-1.58 -1.87,0z"/>
   <path class="fil0" d="M34.93 14.79l-4.63 0c-0.25,0 -0.46,-0.2 -0.46,-0.46 0,-0.25 0.2,-0.46 0.46,-0.46l4.63 0c0.25,0 0.46,0.2 0.46,0.46 0,0.25 -0.2,0.46 -0.46,0.46z"/>
   <path class="fil0" d="M29.14 10.92c-0.25,0 -0.46,-0.2 -0.46,-0.46 0,-0.12 0.05,-0.24 0.13,-0.32l3.4 -3.4c0.09,-0.08 0.2,-0.13 0.32,-0.13 0.25,0 0.46,0.2 0.46,0.46 0,0.12 -0.05,0.24 -0.13,0.32l-3.4 3.4c-0.09,0.09 -0.2,0.13 -0.32,0.13 -0,0 -0,0 -0,0l0 0z"/>
   <path class="fil0" d="M32.63 22.14c-0,0 -0,0 -0,0 -0.12,0 -0.23,-0.05 -0.31,-0.13l-3.43 -3.43c-0.08,-0.08 -0.13,-0.19 -0.13,-0.31 0,-0.24 0.2,-0.44 0.44,-0.44 0.12,0 0.23,0.04 0.31,0.13l3.43 3.43c0.08,0.08 0.13,0.2 0.13,0.31 0,0.24 -0.2,0.44 -0.44,0.44l0 0z"/>
  </g>
 </g>
</svg>
