<?xml version="1.0" encoding="UTF-8"?>
<!DOCTYPE svg PUBLIC "-//W3C//DTD SVG 1.1//EN" "http://www.w3.org/Graphics/SVG/1.1/DTD/svg11.dtd">
<!-- Creator: CorelDRAW -->
<svg xmlns="http://www.w3.org/2000/svg" xml:space="preserve" width="84.0176mm" height="86.3836mm" version="1.1" style="shape-rendering:geometricPrecision; text-rendering:geometricPrecision; image-rendering:optimizeQuality; fill-rule:evenodd; clip-rule:evenodd"
viewBox="0 0 2939.56 3022.34"
 xmlns:xlink="http://www.w3.org/1999/xlink"
 xmlns:xodm="http://www.corel.com/coreldraw/odm/2003">
 <defs>
  <style type="text/css">
   <![CDATA[
    .fil0 {fill:black;fill-rule:nonzero}
   ]]>
  </style>
 </defs>
 <g id="Capa_x0020_1">
  <metadata id="CorelCorpID_0Corel-Layer"/>
  <g id="_1410947481728">
   <g>
    <path class="fil0" d="M2463.33 1870.58c3.7,-2.31 7.68,-4.35 11.85,-5.92l285.31 -143.12 -280.95 -359.45 -896.36 409.72 317.7 381.11 562.46 -282.16 -0 -0.19zm-2053.04 -660.49l1030.13 -470.82c19.35,-8.89 40.63,-8.24 58.69,0l1030.13 470.82c11.02,4.81 20.55,12.5 27.77,22.03l367.6 470.26c23.98,30.73 18.52,75.08 -12.13,99.05 -4.53,3.52 -9.26,6.39 -14.26,8.7l-326.59 163.85 0 506.27c0,30.83 -19.72,57.02 -47.12,66.74l-1019.67 466.1c-10.28,5.83 -22.22,9.26 -34.99,9.26 -12.68,0 -24.62,-3.33 -34.99,-9.26l-1025.32 -468.69c-25.92,-11.85 -41.19,-37.4 -41.29,-64.15l-0.28 0 0 -506.27 -326.59 -163.85c-5,-2.22 -9.81,-5.19 -14.26,-8.7 -30.73,-23.98 -36.19,-68.32 -12.13,-99.05l367.6 -470.26 1.02 -1.29c7.31,-8.98 16.11,-16.01 26.85,-20.74l-0.19 0zm49.8 151.91l-280.95 359.45 285.31 143.12c4.17,1.57 8.15,3.61 11.85,5.92l562.46 282.16 317.7 -381.11 -896.36 -409.72 -0 0.19zm1080.48 579.03l0 900.53 889.33 -406.48 0 -389.91 -515.9 258.83c-30.18,15.09 -66,6.48 -86.37,-18.61l-287.06 -344.36zm-141.72 900.53l0 -900.53 -287.06 344.36c-20.37,25.18 -56.19,33.7 -86.37,18.61l-515.9 -258.83 0 389.91 889.33 406.48zm-600.6 -2181.25c27.68,27.68 27.68,72.48 0,100.16 -27.68,27.68 -72.48,27.68 -100.16,0l-239.11 -239.11c-27.68,-27.68 -27.68,-72.48 0,-100.16 27.68,-27.68 72.48,-27.68 100.16,0l239.11 239.11zm1442.99 100.16c-27.68,27.68 -72.48,27.68 -100.16,0 -27.68,-27.68 -27.68,-72.48 0,-100.16l239.11 -239.11c27.68,-27.68 72.48,-27.68 100.16,0 27.68,27.68 27.68,72.48 0,100.16l-239.11 239.11zm-842.39 -689.65c0,-39.06 31.75,-70.82 70.82,-70.82 39.06,0 70.81,31.75 70.81,70.82l0 333.44c0,39.06 -31.75,70.82 -70.81,70.82 -39.06,0 -70.82,-31.75 -70.82,-70.82l0 -333.44zm-790.37 1203.79l861.19 393.61 861.18 -393.61 -861.18 -393.61 -861.19 393.61z"/>
   </g>
  </g>
 </g>
</svg>
