<?xml version="1.0" encoding="UTF-8"?>
<!DOCTYPE svg PUBLIC "-//W3C//DTD SVG 1.1//EN" "http://www.w3.org/Graphics/SVG/1.1/DTD/svg11.dtd">
<!-- Creator: CorelDRAW -->
<svg xmlns="http://www.w3.org/2000/svg" xml:space="preserve" width="25.1861mm" height="27.0331mm" version="1.1" style="shape-rendering:geometricPrecision; text-rendering:geometricPrecision; image-rendering:optimizeQuality; fill-rule:evenodd; clip-rule:evenodd"
viewBox="0 0 289.3 310.52"
 xmlns:xlink="http://www.w3.org/1999/xlink"
 xmlns:xodm="http://www.corel.com/coreldraw/odm/2003">
 <defs>
  <style type="text/css">
   <![CDATA[
    .fil0 {fill:#C63437;fill-rule:nonzero}
   ]]>
  </style>
 </defs>
 <g id="Capa_x0020_1">
  <metadata id="CorelCorpID_0Corel-Layer"/>
  <path class="fil0" d="M284.72 188.32l-28.09 -34.34c11.71,-14.49 21.52,-36.32 22.14,-64.31 0,-51.44 -35.49,-89.67 -86.52,-89.67 -47.45,0 -88.82,38.22 -88.82,89.67 0,51.44 36.41,93.11 88.82,93.11 16.17,0 32.26,-3.79 45.97,-13.7l27.96 34.19c5.63,6.89 9.7,9.73 17.14,2.13 6.47,-6.6 8.77,-8.25 1.4,-17.07l0 0zm-92.46 -36.71c-30.02,0 -60.15,-25.23 -60.15,-61.9 0,-36.67 30.13,-58.45 60.15,-58.45 30.02,0 55.59,21.78 55.59,58.45 0,36.67 -25.57,61.9 -55.59,61.9zm-185 -118.72l79.79 0c4.02,0 7.26,-3.96 7.26,-8.87l0 -14.62c0,-4.91 -3.24,-8.87 -7.26,-8.87l-79.79 0c-3.98,0 -7.26,3.96 -7.26,8.87l0 14.62c0,4.91 3.28,8.87 7.26,8.87zm0 138.5l86.26 0c4.02,0 7.26,-4.01 7.26,-8.87l0 -14.62c0,-4.91 -3.24,-8.87 -7.26,-8.87l-86.26 0c-3.98,0 -7.26,3.96 -7.26,8.87l0 14.62c0,4.91 3.28,8.87 7.26,8.87zm274.6 104.47l-274.6 0c-3.98,0 -7.26,3.96 -7.26,8.87l0 16.92c0,4.87 3.24,8.87 7.26,8.87l274.6 0c3.98,0 7.26,-3.96 7.26,-8.87l0 -16.92c0,-4.91 -3.28,-8.87 -7.26,-8.87z"/>
 </g>
</svg>
