<?xml version="1.0" encoding="UTF-8"?>
<!DOCTYPE svg PUBLIC "-//W3C//DTD SVG 1.1//EN" "http://www.w3.org/Graphics/SVG/1.1/DTD/svg11.dtd">
<!-- Creator: CorelDRAW -->
<svg xmlns="http://www.w3.org/2000/svg" xml:space="preserve" width="37.8723mm" height="27.125mm" version="1.1" style="shape-rendering:geometricPrecision; text-rendering:geometricPrecision; image-rendering:optimizeQuality; fill-rule:evenodd; clip-rule:evenodd"
viewBox="0 0 88.84 63.63"
 xmlns:xlink="http://www.w3.org/1999/xlink"
 xmlns:xodm="http://www.corel.com/coreldraw/odm/2003">
 <defs>
  <style type="text/css">
   <![CDATA[
    .fil0 {fill:#C63437;fill-rule:nonzero}
   ]]>
  </style>
 </defs>
 <g id="Capa_x0020_1">
  <metadata id="CorelCorpID_0Corel-Layer"/>
  <path class="fil0" d="M82.92 63.63l-76.99 0c-3.27,-0.01 -5.92,-3.17 -5.92,-7.07l-0 -7.44c0.01,-3.38 2.03,-6.29 4.81,-6.93 4.1,-1.04 7.04,-5.37 7.04,-10.38 0,-5.01 -2.94,-9.34 -7.04,-10.38 -2.78,-0.64 -4.8,-3.54 -4.81,-6.93l-0 -7.44c0.01,-3.9 2.65,-7.06 5.92,-7.07l76.99 0c3.27,0.01 5.92,3.17 5.92,7.07l0 49.49c-0,3.9 -2.65,7.06 -5.92,7.07l0 0zm1.19 -58.22l-79.37 0.01 0 9.8c6.7,0.19 12.06,8.21 11.85,16.6 -0.26,10.16 -5.16,15.65 -11.74,16.58l-0.11 9.58 79.37 0 0 -52.57z"/>
  <path class="fil0" d="M62.07 58.27l0 -6.55 5.73 -0.03 -0 6.6 -5.72 -0.02zm0 -11.16l0 -6.98 5.75 -0.07 -0.02 6.99 -5.73 0.06zm0 -12.01l0 -6.72 5.79 0 -0.04 6.61 -5.76 0.11zm0 -11.73l0 -6.57 5.84 -0.08 -0.04 6.7 -5.8 -0.05zm0 -11.59l0 -6.65 5.88 0 -0.01 6.56 -5.87 0.09z"/>
 </g>
</svg>
