<svg xmlns="http://www.w3.org/2000/svg" xmlns:xlink="http://www.w3.org/1999/xlink" xmlns:xodm="http://www.corel.com/coreldraw/odm/2003" xml:space="preserve" version="1.1" style="shape-rendering:geometricPrecision;text-rendering:geometricPrecision;image-rendering:optimizeQuality;" x="0px" y="0px" fill-rule="evenodd" clip-rule="evenodd" viewBox="19.3 86.71 808.06 673.24"><defs><style type="text/css">
</style></defs><g><path class="fil0" d="M21.66 441.01c-3.74,-6.12 -3.01,-14.43 1.98,-19.98l221.58 -272.07c2.76,-3.39 6.57,-5.44 10.58,-6.04l346.49 -55.88c9.1,-1.6 14.84,2.89 18.37,8.88l43.92 76.08c3.57,6.22 2.73,13.78 -1.53,19.04l-57.61 70.75 210.08 79.97c6.86,2.17 11.84,8.59 11.84,16.16l0 274.18c-0.02,6.82 -4.17,13.24 -10.92,15.81l-290.54 110.6c-2.09,0.93 -4.4,1.44 -6.84,1.44 -2.44,0 -4.75,-0.51 -6.84,-1.44l-289.68 -110.27c-6.83,-2.19 -11.78,-8.59 -11.78,-16.14l0 -126.83 -127.59 20.57c-7.09,1.13 -13.86,-2.35 -17.26,-8.21l-44.25 -76.62zm542.85 -313.68l-297.15 47.92 -190.09 233.39 297.15 -47.92 190.09 -233.39zm18.42 162.09l-115.38 141.69 51.51 19.6 243.8 -92.79 -179.93 -68.5zm-137.88 169.32l-3.53 4.32c-2.86,3.82 -6.93,6.33 -11.71,6.88l-185.17 29.86 0 120.65 257.48 98.01 0 -238 -57.07 -21.72zm158.21 -325.52l-199.35 244.77 26.28 45.51c66.45,-81.59 132.9,-163.17 199.35,-244.76l-26.28 -45.52zm-228.62 261.66l-311.59 50.24 26.29 45.53c103.86,-16.75 207.72,-33.5 311.59,-50.24l-26.29 -45.53zm161.36 85.58l0 238 257.48 -98.01 0 -237.98 -257.48 97.99z"/></g>&gt;</svg>