<?xml version="1.0" encoding="UTF-8"?>
<!DOCTYPE svg PUBLIC "-//W3C//DTD SVG 1.1//EN" "http://www.w3.org/Graphics/SVG/1.1/DTD/svg11.dtd">
<!-- Creator: CorelDRAW (Versión OEM) -->
<svg xmlns="http://www.w3.org/2000/svg" xml:space="preserve" width="16.4146mm" height="16.4048mm" version="1.1" style="shape-rendering:geometricPrecision; text-rendering:geometricPrecision; image-rendering:optimizeQuality; fill-rule:evenodd; clip-rule:evenodd"
viewBox="0 0 2506.08 2504.59"
 xmlns:xlink="http://www.w3.org/1999/xlink"
 xmlns:xodm="http://www.corel.com/coreldraw/odm/2003">
 <defs>
  <style type="text/css">
   <![CDATA[
    .fil0 {fill:#ED3237;fill-rule:nonzero}
   ]]>
  </style>
 </defs>
 <g id="Capa_x0020_1">
  <metadata id="CorelCorpID_0Corel-Layer"/>
  <path class="fil0" d="M1575.5 0c-512.82,0.34 -928.29,416.28 -928.29,929.08 0,190.45 58.54,376.36 167.65,532.42l-289.62 289.21 -249.24 -249.23c-30.28,-30.32 -71.44,-47.39 -114.31,-47.39 -42.87,0 -84.03,17.07 -114.31,47.37l-0.02 0.02c-30.31,30.29 -47.37,71.45 -47.37,114.32 0,42.86 17.07,84.02 47.37,114.29l249.24 249.24 -249.24 249.24c-30.31,30.28 -47.37,71.44 -47.37,114.31 0,42.87 17.07,84.03 47.37,114.31l0 0.02c30.29,30.31 71.45,47.37 114.32,47.37 42.87,0 84.03,-17.07 114.31,-47.37l249.24 -249.23 249.24 249.24c30.29,30.29 71.45,47.36 114.31,47.36 42.87,0 84.03,-17.07 114.31,-47.37l0 0c30.34,-30.29 47.41,-71.45 47.41,-114.32 0,-42.87 -17.07,-84.03 -47.37,-114.31l-249.26 -249.24 289.62 -289.64c156.26,109.56 342.6,168.43 533.5,168.43 513.03,0 929.08,-416.02 929.08,-929.05 0,-513.03 -416.05,-929.08 -929.08,-929.08 -0.46,0 -1.02,0 -1.48,0l-0.02 0zm0 1535.02c-334.57,0 -605.92,-271.35 -605.92,-605.93 0,-334.59 271.35,-605.93 605.92,-605.93 334.59,0 605.93,271.35 605.93,605.93 0,334.59 -271.35,605.93 -605.93,605.93z"/>
 </g>
</svg>
