<?xml version="1.0" encoding="UTF-8"?>
<!DOCTYPE svg PUBLIC "-//W3C//DTD SVG 1.1//EN" "http://www.w3.org/Graphics/SVG/1.1/DTD/svg11.dtd">
<!-- Creator: CorelDRAW -->
<svg xmlns="http://www.w3.org/2000/svg" xml:space="preserve" width="35.4327mm" height="27.1251mm" version="1.1" style="shape-rendering:geometricPrecision; text-rendering:geometricPrecision; image-rendering:optimizeQuality; fill-rule:evenodd; clip-rule:evenodd"
viewBox="0 0 84.27 64.51"
 xmlns:xlink="http://www.w3.org/1999/xlink"
 xmlns:xodm="http://www.corel.com/coreldraw/odm/2003">
 <defs>
  <style type="text/css">
   <![CDATA[
    .fil0 {fill:#C63437;fill-rule:nonzero}
   ]]>
  </style>
 </defs>
 <g id="Capa_x0020_1">
  <metadata id="CorelCorpID_0Corel-Layer"/>
  <g id="_2223023618496">
   <path class="fil0" d="M49.84 42.96c1.81,-5.5 8.89,-8.96 15.12,-8.96 7.45,0 15.86,4.85 15.86,13.05 0,4.05 -0.31,4.04 -6.23,4.04l-14.74 0 3.64 -3.64c0.83,-0.83 1.18,-1.35 -0.08,-2.47 -1.23,-1.1 -1.58,-0.73 -2.36,0.04l-6.46 6.46c-0.69,0.69 -0.76,1.77 -0.05,2.48l6.67 6.67c0.78,0.78 1.21,1.23 2.37,0.03 1.27,-1.31 0.89,-1.64 0.07,-2.46l-3.67 -3.67 19.38 0c4.29,0 4.89,-3.83 4.89,-7.47 0,-7.27 -5.37,-12.92 -11.93,-15.25 3.92,-2.5 6.3,-6.84 6.3,-11.51 0,-7.54 -6.12,-13.67 -13.66,-13.67 -7.54,0 -13.67,6.13 -13.67,13.67 0,4.67 2.4,9 6.3,11.5 -4.41,1.55 -8.13,4.25 -10.2,8.07 0.82,0.88 1.66,1.73 2.43,3.08zm15.14 -32.89c5.65,0 10.22,4.58 10.22,10.23 0,5.65 -4.57,10.22 -10.22,10.22 -5.65,0 -10.23,-4.57 -10.23,-10.22 0,-5.64 4.59,-10.23 10.23,-10.23z"/>
   <path class="fil0" d="M-0 54.2c0,3.03 0.75,6.04 2.11,8.74 0.66,1.33 1.11,2.2 3.01,1.02 2.03,-1.25 1.77,-1.7 1.09,-3.07 -1.06,-2.1 -1.61,-4.33 -1.61,-6.69 0,-11 11.29,-17.5 21.29,-17.5 9.99,0 21.26,6.5 21.26,17.5 0,3.46 -0.58,4.3 -1.74,7.46 -0.44,0.89 -0.65,1.35 1.42,2.28 2.16,0.97 2.35,0.51 2.61,-0.07 1.57,-3.53 2.51,-5.75 2.51,-9.69 0,-9.74 -6.68,-17.21 -16.16,-20.42 5.25,-3.35 8.44,-9.17 8.44,-15.43 0,-10.11 -8.21,-18.33 -18.32,-18.33 -10.11,0 -18.33,8.21 -18.33,18.33 0,6.26 3.22,12.07 8.44,15.42 -9.12,3.21 -16.03,10.08 -16.03,20.45zm25.92 -49.59c7.58,0 13.71,6.14 13.71,13.72 0,7.58 -6.13,13.71 -13.71,13.71 -7.58,0 -13.72,-6.13 -13.72,-13.71 0,-7.57 6.15,-13.72 13.72,-13.72z"/>
  </g>
 </g>
</svg>
