<?xml version="1.0" encoding="UTF-8"?>
<!DOCTYPE svg PUBLIC "-//W3C//DTD SVG 1.1//EN" "http://www.w3.org/Graphics/SVG/1.1/DTD/svg11.dtd">
<!-- Creator: CorelDRAW -->
<svg xmlns="http://www.w3.org/2000/svg" xml:space="preserve" width="25.186mm" height="27.083mm" version="1.1" style="shape-rendering:geometricPrecision; text-rendering:geometricPrecision; image-rendering:optimizeQuality; fill-rule:evenodd; clip-rule:evenodd"
viewBox="0 0 108.69 116.87"
 xmlns:xlink="http://www.w3.org/1999/xlink"
 xmlns:xodm="http://www.corel.com/coreldraw/odm/2003">
 <defs>
  <style type="text/css">
   <![CDATA[
    .fil0 {fill:#C63437;fill-rule:nonzero}
   ]]>
  </style>
 </defs>
 <g id="Capa_x0020_1">
  <metadata id="CorelCorpID_0Corel-Layer"/>
  <path class="fil0" d="M96.31 58.44c0,24.93 -18.79,45.13 -41.97,45.13 -23.18,0 -41.97,-20.2 -41.97,-45.13 0,-24.93 18.79,-45.13 41.97,-45.13 23.18,0 41.97,20.2 41.97,45.13zm-96.31 0c0,32.27 24.33,58.44 54.34,58.44 30.01,0 54.34,-26.16 54.34,-58.44 0,-32.27 -24.33,-58.44 -54.34,-58.44 -30.01,0 -54.34,26.16 -54.34,58.44z"/>
  <path class="fil0" d="M52.32 24.71l0 33.52c0,0.98 0.8,1.78 1.78,1.78 0.98,0 1.78,-0.8 1.78,-1.78l0 -33.52c0,-0.98 -0.8,-1.78 -1.78,-1.78 -0.98,0 -1.78,0.8 -1.78,1.78z"/>
  <path class="fil0" d="M22.93 71.21c-0.9,0.38 -1.58,0.82 -1.51,1 0.07,0.17 0.87,0.01 1.77,-0.37l30.94 -12.89c0.9,-0.38 1.58,-0.82 1.51,-1 -0.07,-0.17 -0.87,-0.01 -1.77,0.37l-30.95 12.89z"/>
  <path class="fil0" d="M54.95 55.87c-1.44,0 -2.6,1.16 -2.6,2.6 0,1.44 1.16,2.6 2.6,2.6l21.98 0c1.44,0 2.6,-1.16 2.6,-2.6 0,-1.44 -1.16,-2.6 -2.6,-2.6l-21.98 0z"/>
  <path class="fil0" d="M50.18 58.14c0,2.44 1.98,4.43 4.43,4.43 2.45,0 4.43,-1.98 4.43,-4.43 0,-2.45 -1.98,-4.43 -4.43,-4.43 -2.44,0 -4.43,1.98 -4.43,4.43z"/>
 </g>
</svg>
