<?xml version="1.0" encoding="UTF-8"?>
<!DOCTYPE svg PUBLIC "-//W3C//DTD SVG 1.1//EN" "http://www.w3.org/Graphics/SVG/1.1/DTD/svg11.dtd">
<!-- Creator: CorelDRAW -->
<svg xmlns="http://www.w3.org/2000/svg" xml:space="preserve" width="39.8007mm" height="27.125mm" version="1.1" style="shape-rendering:geometricPrecision; text-rendering:geometricPrecision; image-rendering:optimizeQuality; fill-rule:evenodd; clip-rule:evenodd"
viewBox="0 0 64.32 43.83"
 xmlns:xlink="http://www.w3.org/1999/xlink"
 xmlns:xodm="http://www.corel.com/coreldraw/odm/2003">
 <defs>
  <style type="text/css">
   <![CDATA[
    .fil1 {fill:#C63437}
    .fil0 {fill:#C63437;fill-rule:nonzero}
   ]]>
  </style>
 </defs>
 <g id="Capa_x0020_1">
  <metadata id="CorelCorpID_0Corel-Layer"/>
  <path class="fil0" d="M54.83 0l-48.18 0c-5.36,0 -6.65,0.82 -6.65,6.16l-0 30.54c0,5.36 1.93,7.13 7.29,7.13l43.56 0c-3.94,-0.94 -5.17,-2.21 -6.71,-3.95l-37.21 -0.01c-1.79,-0 -3.23,-1.45 -3.23,-3.24l-0 -29.68 22.59 17.08c2.83,2.14 7.42,2.24 10.17,0l20.97 -17.06 0 13.42c1.83,0.42 2.8,1.21 3.71,1.99l0 -15.59c0,-5.36 -0.98,-6.81 -6.32,-6.81zm0.16 3.89l-21.81 17.12c-1.08,0.85 -2.53,0.79 -3.58,0.02l-23.32 -17.13 48.71 0z"/>
  <path class="fil1" d="M53.25 20.85c6.11,0 11.07,4.96 11.07,11.07 0,6.11 -4.96,11.07 -11.07,11.07 -6.11,0 -11.07,-4.96 -11.07,-11.07 0,-6.11 4.96,-11.07 11.07,-11.07zm-0.03 19.28c3.96,0.02 8.36,-3.72 8.33,-8.08 -0.01,-1.94 -0.96,-3.92 -2.4,-5.46 0,0 -10.77,11.68 -10.77,11.68 -0.24,-0.19 -0.45,-0.38 -0.65,-0.58 -0.12,-0.11 -0.23,-0.23 -0.35,-0.36 -0.06,-0.06 -0.12,-0.13 -0.18,-0.2 0,0 10.72,-11.66 10.72,-11.66 -1.42,-1.08 -3.11,-1.75 -4.8,-1.71 -4.45,0.11 -7.97,4.41 -7.98,8.26 -0.01,4.12 4.01,8.08 8.08,8.1z"/>
 </g>
</svg>
