<?xml version="1.0" encoding="UTF-8"?>
<!DOCTYPE svg PUBLIC "-//W3C//DTD SVG 1.1//EN" "http://www.w3.org/Graphics/SVG/1.1/DTD/svg11.dtd">
<!-- Creator: CorelDRAW -->
<svg xmlns="http://www.w3.org/2000/svg" xml:space="preserve" width="27.1246mm" height="27.125mm" version="1.1" style="shape-rendering:geometricPrecision; text-rendering:geometricPrecision; image-rendering:optimizeQuality; fill-rule:evenodd; clip-rule:evenodd"
viewBox="0 0 302.16 302.17"
 xmlns:xlink="http://www.w3.org/1999/xlink"
 xmlns:xodm="http://www.corel.com/coreldraw/odm/2003">
 <defs>
  <style type="text/css">
   <![CDATA[
    .fil0 {fill:#C63437;fill-rule:nonzero}
   ]]>
  </style>
 </defs>
 <g id="Capa_x0020_1">
  <metadata id="CorelCorpID_0Corel-Layer"/>
  <path class="fil0" d="M151.08 271.53c-66.36,0 -120.34,-53.98 -120.34,-120.34 0,-52.83 34.24,-97.79 81.67,-113.94l0 32.75c-30.29,14.48 -51.27,45.43 -51.27,81.19 0,49.59 40.34,89.95 89.94,89.95 49.6,0 89.93,-40.36 89.93,-89.95 0,-35.76 -20.97,-66.71 -51.27,-81.19l0 -32.75c47.45,16.15 81.68,61.11 81.68,113.94 0,66.35 -53.98,120.34 -120.34,120.34zm0.36 -261.17c17.74,0 17.58,1.79 17.58,15.45l0 95.42 -36.58 0 0 -94.41c0,-15.01 -0.04,-16.46 19,-16.46zm-0.36 -10.36c-83.45,0 -151.08,67.65 -151.08,151.09 0,83.44 67.64,151.08 151.08,151.08 83.43,0 151.08,-67.65 151.08,-151.08 0,-83.44 -67.65,-151.09 -151.08,-151.09z"/>
 </g>
</svg>
