<?xml version="1.0" encoding="UTF-8"?>
<!DOCTYPE svg PUBLIC "-//W3C//DTD SVG 1.1//EN" "http://www.w3.org/Graphics/SVG/1.1/DTD/svg11.dtd">
<!-- Creator: CorelDRAW -->
<svg xmlns="http://www.w3.org/2000/svg" xml:space="preserve" width="27.1252mm" height="27.1252mm" version="1.1" style="shape-rendering:geometricPrecision; text-rendering:geometricPrecision; image-rendering:optimizeQuality; fill-rule:evenodd; clip-rule:evenodd"
viewBox="0 0 35.9 35.9"
 xmlns:xlink="http://www.w3.org/1999/xlink"
 xmlns:xodm="http://www.corel.com/coreldraw/odm/2003">
 <defs>
  <style type="text/css">
   <![CDATA[
    .fil0 {fill:#C63437;fill-rule:nonzero}
   ]]>
  </style>
 </defs>
 <g id="Capa_x0020_1">
  <metadata id="CorelCorpID_0Corel-Layer"/>
  <g id="_1518600483824">
   <path class="fil0" d="M31.76 0l-22.09 0c-2.28,0 -4.14,1.86 -4.14,4.14l0 1.38 -1.38 0c-2.28,0 -4.14,1.86 -4.14,4.14l0 22.09c0,2.28 1.86,4.14 4.14,4.14l22.09 0c2.28,0 4.14,-1.86 4.14,-4.14l0 -1.38 1.38 0c2.28,0 4.14,-1.86 4.14,-4.14l0 -22.09c0,-2.28 -1.86,-4.14 -4.14,-4.14zm-4.14 31.76c0,0.76 -0.62,1.38 -1.38,1.38l-22.09 0c-0.76,0 -1.38,-0.62 -1.38,-1.38l0 -22.09c0,-0.76 0.62,-1.38 1.38,-1.38l22.09 0c0.76,0 1.38,0.62 1.38,1.38l0 22.09zm5.52 -5.52c0,0.76 -0.62,1.38 -1.38,1.38l-1.38 0 0 -17.95c0,-2.28 -1.86,-4.14 -4.14,-4.14l-17.95 0 0 -1.38c0,-0.76 0.62,-1.38 1.38,-1.38l22.09 0c0.76,0 1.38,0.62 1.38,1.38l0 22.09z"/>
   <path class="fil0" d="M6.21 14.96l17.95 0c0.38,0 0.69,-0.31 0.69,-0.69l0 -1.38c0,-0.38 -0.31,-0.69 -0.69,-0.69l-17.95 0c-0.38,0 -0.69,0.31 -0.69,0.69l0 1.38c0,0.38 0.31,0.69 0.69,0.69z"/>
   <path class="fil0" d="M6.21 22.07l17.95 0c0.38,0 0.69,-0.31 0.69,-0.69l0 -1.38c0,-0.38 -0.31,-0.69 -0.69,-0.69l-17.95 0c-0.38,0 -0.69,0.31 -0.69,0.69l0 1.38c0,0.38 0.31,0.69 0.69,0.69z"/>
   <path class="fil0" d="M6.21 29.18l17.95 0c0.38,0 0.69,-0.31 0.69,-0.69l0 -1.38c0,-0.38 -0.31,-0.69 -0.69,-0.69l-17.95 0c-0.38,0 -0.69,0.31 -0.69,0.69l0 1.38c0,0.38 0.31,0.69 0.69,0.69z"/>
  </g>
 </g>
</svg>
