<?xml version="1.0" encoding="UTF-8"?>
<!DOCTYPE svg PUBLIC "-//W3C//DTD SVG 1.1//EN" "http://www.w3.org/Graphics/SVG/1.1/DTD/svg11.dtd">
<!-- Creator: CorelDRAW -->
<svg xmlns="http://www.w3.org/2000/svg" xml:space="preserve" width="24.0399mm" height="27.125mm" version="1.1" style="shape-rendering:geometricPrecision; text-rendering:geometricPrecision; image-rendering:optimizeQuality; fill-rule:evenodd; clip-rule:evenodd"
viewBox="0 0 22.66 25.57"
 xmlns:xlink="http://www.w3.org/1999/xlink"
 xmlns:xodm="http://www.corel.com/coreldraw/odm/2003">
 <defs>
  <style type="text/css">
   <![CDATA[
    .fil0 {fill:#C63437;fill-rule:nonzero}
   ]]>
  </style>
 </defs>
 <g id="Capa_x0020_1">
  <metadata id="CorelCorpID_0Corel-Layer"/>
  <g id="_2686757856400">
   <path class="fil0" d="M10.79 3.02c0.05,-0.01 0.1,-0.01 0.15,-0.02 0.11,-0.01 0.22,-0.02 0.33,-0.02 0.02,0 0.04,-0 0.06,-0 0.02,0 0.04,0 0.06,0 0.11,0 0.22,0.01 0.33,0.02 0.05,0.01 0.1,0.01 0.15,0.02 0.09,0.01 0.18,0.03 0.27,0.05 0.03,0.01 0.06,0.01 0.08,0.01l0 -2.19c0,-0.24 -0.09,-0.46 -0.26,-0.63 -0.17,-0.17 -0.4,-0.26 -0.63,-0.26 -0.49,0 -0.89,0.4 -0.89,0.89l0 2.19c0.03,-0.01 0.06,-0.01 0.09,-0.01 0.09,-0.02 0.18,-0.04 0.27,-0.05z"/>
   <path class="fil0" d="M11.85 10.07c-0.03,0.01 -0.07,0.01 -0.11,0.01 -0.14,0.01 -0.27,0.03 -0.41,0.03 -0.14,0 -0.27,-0.01 -0.41,-0.03 -0.03,-0 -0.07,-0.01 -0.11,-0.01 -0.1,-0.01 -0.21,-0.03 -0.31,-0.06 -0.02,-0.01 -0.05,-0.01 -0.07,-0.01l0 14.68c0,0.49 0.4,0.89 0.89,0.89 0.49,0 0.89,-0.4 0.89,-0.89l0 -14.68c-0.02,0.01 -0.05,0.01 -0.07,0.01 -0.1,0.02 -0.2,0.04 -0.3,0.06z"/>
   <path class="fil0" d="M19.68 12.49c0.29,0 0.61,0.05 0.89,0.11l0 -11.7c0,-0.5 -0.4,-0.89 -0.89,-0.89 -0.49,0 -0.89,0.4 -0.89,0.89l0 11.71c0.29,-0.06 0.6,-0.11 0.89,-0.11z"/>
   <path class="fil0" d="M19.68 19.62c-0.3,0 -0.61,-0.05 -0.9,-0.11l0 5.17c0,0.49 0.4,0.89 0.89,0.89 0.49,0 0.89,-0.4 0.89,-0.89l-0 -5.17c-0.27,0.07 -0.61,0.11 -0.89,0.11z"/>
   <path class="fil0" d="M2.44 15.5c0.05,-0.01 0.1,-0.01 0.15,-0.02 0.1,-0.01 0.21,-0.02 0.31,-0.02 0.03,-0 0.05,-0.01 0.08,-0.01 0.03,0 0.05,0 0.07,0.01 0.11,0 0.21,0.01 0.32,0.02 0.05,0.01 0.1,0.01 0.15,0.02 0.09,0.01 0.18,0.03 0.27,0.05 0.03,0.01 0.06,0.01 0.09,0.02l0 -14.68c0,-0.24 -0.09,-0.46 -0.26,-0.63 -0.17,-0.17 -0.4,-0.26 -0.64,-0.26 -0.49,0 -0.89,0.4 -0.89,0.89l0 14.68c0.03,-0.01 0.06,-0.01 0.09,-0.02 0.09,-0.02 0.18,-0.04 0.27,-0.05z"/>
   <path class="fil0" d="M3.5 22.55c-0.04,0.01 -0.08,0.01 -0.11,0.01 -0.13,0.02 -0.27,0.03 -0.41,0.03 -0.14,0 -0.27,-0.01 -0.41,-0.03 -0.04,-0 -0.08,-0.01 -0.11,-0.01 -0.1,-0.01 -0.2,-0.03 -0.31,-0.06 -0.02,-0.01 -0.05,-0.01 -0.07,-0.01l0 2.19c0,0.49 0.4,0.89 0.89,0.89 0.49,0 0.89,-0.4 0.89,-0.89l0 -2.19c-0.02,0.01 -0.05,0.01 -0.07,0.01 -0.1,0.02 -0.2,0.04 -0.3,0.06z"/>
   <path class="fil0" d="M4.07 16.25c-0.35,-0.13 -0.71,-0.2 -1.09,-0.2 -0.37,0 -0.73,0.07 -1.09,0.2 -1.15,0.45 -1.89,1.54 -1.89,2.77 0,1.23 0.75,2.32 1.9,2.77 0.7,0.27 1.47,0.27 2.17,0 1.15,-0.45 1.9,-1.54 1.9,-2.77 0,-1.23 -0.75,-2.32 -1.9,-2.77z"/>
   <path class="fil0" d="M12.42 3.77c-0.35,-0.13 -0.71,-0.2 -1.09,-0.2 -0.37,0 -0.73,0.07 -1.09,0.2 -1.15,0.45 -1.9,1.54 -1.9,2.77 0,1.23 0.75,2.32 1.9,2.77 0.7,0.27 1.47,0.27 2.17,0 1.15,-0.45 1.9,-1.54 1.9,-2.77 0,-1.23 -0.74,-2.32 -1.89,-2.77z"/>
   <path class="fil0" d="M20.76 13.28c-0.35,-0.13 -0.71,-0.2 -1.09,-0.2 -0.37,0 -0.73,0.07 -1.09,0.2 -1.15,0.45 -1.9,1.54 -1.9,2.77 0,1.23 0.75,2.32 1.9,2.77 0.7,0.27 1.47,0.27 2.17,0 1.15,-0.45 1.9,-1.54 1.9,-2.77 0,-1.23 -0.75,-2.32 -1.9,-2.77z"/>
  </g>
 </g>
</svg>
