<?xml version="1.0" encoding="UTF-8"?>
<!DOCTYPE svg PUBLIC "-//W3C//DTD SVG 1.1//EN" "http://www.w3.org/Graphics/SVG/1.1/DTD/svg11.dtd">
<!-- Creator: CorelDRAW -->
<svg xmlns="http://www.w3.org/2000/svg" xml:space="preserve" width="31.6347mm" height="27.1861mm" version="1.1" style="shape-rendering:geometricPrecision; text-rendering:geometricPrecision; image-rendering:optimizeQuality; fill-rule:evenodd; clip-rule:evenodd"
viewBox="0 0 42.77 36.75"
 xmlns:xlink="http://www.w3.org/1999/xlink"
 xmlns:xodm="http://www.corel.com/coreldraw/odm/2003">
 <defs>
  <style type="text/css">
   <![CDATA[
    .fil1 {fill:#C63437}
    .fil0 {fill:#C63437;fill-rule:nonzero}
   ]]>
  </style>
 </defs>
 <g id="Capa_x0020_1">
  <metadata id="CorelCorpID_0Corel-Layer"/>
  <g id="_1972853708832">
   <path class="fil0" d="M2.51 0c-1.38,0 -2.51,1.12 -2.51,2.51l0 18.38c0,1.38 1.12,2.51 2.51,2.51l3.01 0 0 10.86c0,1.38 1.12,2.51 2.51,2.51l32.24 0c1.38,0 2.51,-1.12 2.51,-2.51l0 -18.38c0,-1.38 -1.12,-2.51 -2.51,-2.51l-3.01 0 0 -10.86c0,-1.38 -1.12,-2.51 -2.51,-2.51l-32.24 0zm0 1.67l32.24 0c0.46,0 0.84,0.37 0.84,0.84l0 2.51 -33.91 0 0 -2.51c0,-0.46 0.37,-0.84 0.84,-0.84l0 -0zm-0.84 8.35l33.91 0 0 3.34 -27.56 0c-1.38,0 -2.51,1.12 -2.51,2.51l0 5.85 -3.01 -0c-0.46,0 -0.84,-0.37 -0.84,-0.84l0 -10.86zm6.35 5.01l32.24 0c0.46,0 0.84,0.37 0.84,0.84l0 18.38c0,0.46 -0.37,0.84 -0.84,0.84l-32.24 0c-0.46,0 -0.84,-0.37 -0.84,-0.84l0 -18.38c0,-0.46 0.37,-0.84 0.84,-0.84l0 -0zm20.05 3.34c-2.3,0 -4.18,1.87 -4.18,4.18 0,2.3 1.87,4.18 4.18,4.18 0.91,0 1.79,-0.3 2.51,-0.84 0.72,0.54 1.6,0.84 2.51,0.84 2.3,0 4.18,-1.87 4.18,-4.18 0,-2.3 -1.87,-4.18 -4.18,-4.18 -0.91,0 -1.79,0.3 -2.51,0.84 -0.72,-0.54 -1.59,-0.84 -2.51,-0.84zm0 1.67c1.38,0 2.51,1.13 2.51,2.51 0,1.38 -1.12,2.51 -2.51,2.51 -1.38,0 -2.51,-1.12 -2.51,-2.51 0,-1.38 1.12,-2.51 2.51,-2.51l-0 0zm5.01 0c1.38,0 2.51,1.12 2.51,2.51 0,1.38 -1.12,2.51 -2.51,2.51 -0.5,0 -0.98,-0.15 -1.39,-0.42 0.36,-0.63 0.56,-1.35 0.56,-2.08 0,-0.74 -0.2,-1.45 -0.56,-2.08 0.41,-0.27 0.89,-0.42 1.39,-0.42l0 -0z"/>
   <rect class="fil1" x="8.96" y="31.2" width="14.35" height="1.67"/>
  </g>
 </g>
</svg>
