<?xml version="1.0" encoding="UTF-8"?>
<!DOCTYPE svg PUBLIC "-//W3C//DTD SVG 1.1//EN" "http://www.w3.org/Graphics/SVG/1.1/DTD/svg11.dtd">
<!-- Creator: CorelDRAW -->
<svg xmlns="http://www.w3.org/2000/svg" xml:space="preserve" width="22.2273mm" height="27.125mm" version="1.1" style="shape-rendering:geometricPrecision; text-rendering:geometricPrecision; image-rendering:optimizeQuality; fill-rule:evenodd; clip-rule:evenodd"
viewBox="0 0 46.55 56.81"
 xmlns:xlink="http://www.w3.org/1999/xlink"
 xmlns:xodm="http://www.corel.com/coreldraw/odm/2003">
 <defs>
  <style type="text/css">
   <![CDATA[
    .fil0 {fill:black;fill-rule:nonzero}
   ]]>
  </style>
 </defs>
 <g id="Capa_x0020_1">
  <metadata id="CorelCorpID_0Corel-Layer"/>
  <g id="_2346365950816">
   <g>
    <path class="fil0" d="M8.48 52.58l29.58 0c2.33,0 4.25,-1.92 4.25,-4.25 0,-5.54 -0,-10.53 -0,-17.29 0,-2.33 -1.91,-4.25 -4.25,-4.25l-29.32 0c-2.52,0.23 -4.51,1.45 -4.51,4.25 0,6.54 0,10.79 0,17.29 0,2.33 1.91,4.25 4.25,4.25zm3.36 -30.03l0 -4.99c0,-6.29 5.14,-11.43 11.43,-11.43 6.29,0 11.43,5.14 11.43,11.43l0 4.99 2.84 0 0 -4.99c0,-8.19 -6.08,-14.27 -14.26,-14.27 -8.19,0 -14.26,6.08 -14.26,14.27l0 4.99 2.84 0 -0 0zm19.56 0l0 -4.99c0,-4.82 -3.32,-8.14 -8.14,-8.14 -4.82,0 -8.14,3.32 -8.14,8.14l0 4.99 16.27 0zm-25.69 0.1l0 -5.1c0,-9.66 7.9,-17.56 17.56,-17.56 9.66,0 17.56,7.9 17.56,17.56l0 5.1c3.29,0.58 5.72,3.46 5.72,6.81l0 20.44c0,3.8 -3.11,6.91 -6.91,6.91l-32.73 0c-3.8,0 -6.91,-3.11 -6.91,-6.91l0 -20.44c0,-3.35 2.43,-6.23 5.72,-6.81l-0 0z"/>
   </g>
  </g>
 </g>
</svg>
