<svg width="17" height="16" viewBox="0 0 17 16" fill="none" xmlns="http://www.w3.org/2000/svg">
<path d="M14.0461 13.3357L11.4117 10.7012M12.7909 7.37251C12.7909 9.97265 10.6831 12.0805 8.08296 12.0805C5.48283 12.0805 3.375 9.97265 3.375 7.37251C3.375 4.77238 5.48283 2.66455 8.08296 2.66455C10.6831 2.66455 12.7909 4.77238 12.7909 7.37251Z" stroke="#2A5170" stroke-linecap="round" stroke-linejoin="round"/>
<path d="M14.0461 13.3357L11.4117 10.7012M12.7909 7.37251C12.7909 9.97265 10.6831 12.0805 8.08296 12.0805C5.48283 12.0805 3.375 9.97265 3.375 7.37251C3.375 4.77238 5.48283 2.66455 8.08296 2.66455C10.6831 2.66455 12.7909 4.77238 12.7909 7.37251Z" stroke="#2A5170" stroke-linecap="round" stroke-linejoin="round"/>
</svg>
