<?xml version="1.0" encoding="UTF-8"?>
<!DOCTYPE svg PUBLIC "-//W3C//DTD SVG 1.1//EN" "http://www.w3.org/Graphics/SVG/1.1/DTD/svg11.dtd">
<!-- Creator: CorelDRAW -->
<svg xmlns="http://www.w3.org/2000/svg" xml:space="preserve" width="21.6357mm" height="27.125mm" version="1.1" style="shape-rendering:geometricPrecision; text-rendering:geometricPrecision; image-rendering:optimizeQuality; fill-rule:evenodd; clip-rule:evenodd"
viewBox="0 0 46.58 58.4"
 xmlns:xlink="http://www.w3.org/1999/xlink"
 xmlns:xodm="http://www.corel.com/coreldraw/odm/2003">
 <defs>
  <style type="text/css">
   <![CDATA[
    .fil0 {fill:black;fill-rule:nonzero}
   ]]>
  </style>
 </defs>
 <g id="Capa_x0020_1">
  <metadata id="CorelCorpID_0Corel-Layer"/>
  <g id="_2347700523648">
   <path class="fil0" d="M42.73 7.72c-2.78,-0.26 -5.51,-0.89 -8.11,-1.87 -3.14,-1.17 -6.07,-2.83 -8.71,-4.93 -1.54,-1.23 -3.7,-1.23 -5.24,0 -2.63,2.1 -5.56,3.76 -8.71,4.93 -2.6,0.97 -5.34,1.6 -8.11,1.87 -2.19,0.21 -3.85,2.02 -3.85,4.21l0 20.93c0,8.88 4.93,16.86 12.87,20.83l8.52 4.26c0.59,0.3 1.24,0.44 1.89,0.44 0.65,0 1.3,-0.15 1.89,-0.44l8.52 -4.26c7.94,-3.97 12.87,-11.95 12.87,-20.83l0 -20.93c0,-2.19 -1.65,-4 -3.85,-4.21l-0 0zm-0.39 25.14c0,7.26 -4.04,13.79 -10.53,17.04l-8.52 4.26 -8.52 -4.26c-6.5,-3.25 -10.53,-9.78 -10.53,-17.04l0.01 -20.93c3.15,-0.3 6.24,-1.01 9.2,-2.11 3.56,-1.33 6.88,-3.21 9.83,-5.59 2.98,2.38 6.3,4.26 9.86,5.59 2.95,1.1 6.05,1.81 9.21,2.11l0 20.93 0 0zm-9.1 -10.75c0.83,0.82 0.85,2.16 0.03,2.99l-10.59 10.78c-0.4,0.4 -0.94,0.63 -1.51,0.63l-0.01 0c-0.57,0 -1.12,-0.23 -1.51,-0.64l-6.35 -6.54c-0.82,-0.84 -0.79,-2.18 0.04,-2.99 0.84,-0.82 2.18,-0.8 2.99,0.04l4.84 4.99 9.07 -9.23c0.82,-0.84 2.16,-0.85 2.99,-0.03l-0 0z"/>
  </g>
 </g>
</svg>
