<?xml version="1.0" encoding="UTF-8"?>
<!DOCTYPE svg PUBLIC "-//W3C//DTD SVG 1.1//EN" "http://www.w3.org/Graphics/SVG/1.1/DTD/svg11.dtd">
<!-- Creator: CorelDRAW -->
<svg xmlns="http://www.w3.org/2000/svg" xml:space="preserve" width="35.433mm" height="27.1251mm" version="1.1" style="shape-rendering:geometricPrecision; text-rendering:geometricPrecision; image-rendering:optimizeQuality; fill-rule:evenodd; clip-rule:evenodd"
viewBox="0 0 266.67 204.15"
 xmlns:xlink="http://www.w3.org/1999/xlink"
 xmlns:xodm="http://www.corel.com/coreldraw/odm/2003">
 <defs>
  <style type="text/css">
   <![CDATA[
    .fil1 {fill:#C63437}
    .fil2 {fill:#FEFEFE;fill-rule:nonzero}
    .fil0 {fill:#C63437;fill-rule:nonzero}
   ]]>
  </style>
 </defs>
 <g id="Capa_x0020_1">
  <metadata id="CorelCorpID_0Corel-Layer"/>
  <g id="_2717206379552">
   <path class="fil0" d="M152.8 0.04l-122.98 0c-32.71,0 -29.74,-1.84 -29.74,34.81l90.09 0 0.15 11.03 -90.23 0.04 0 10.59 66.11 0.02 -0.25 10.81 -65.86 -0.01 0 9.78 45.05 0 -0.25 9.76 -44.81 0.01 0 35.07 152.45 0 21.72 0c0,-6.78 0,-15.82 0,-22.61 0,-28.36 0,-49.19 0,-77.55 0,-23.74 2.05,-21.76 -21.44,-21.76z"/>
   <path class="fil0" d="M262.92 80.58l-51.39 0c-2.56,0 -4.58,-2.44 -4.58,-5.4 0,-3.05 2.05,-5.46 4.58,-5.46l48.25 0c-0.32,-14.13 -5.04,-27.3 -13.46,-37.4 -8.8,-10.41 -20.44,-16.16 -32.79,-16.16l-30.12 -0 0 111.27c0,2.95 -2.05,5.4 -4.58,5.4l-178.69 0c0,35.47 -2.42,32.57 21.73,32.57 2.98,-11.61 17.6,-21.1 31.46,-21.1 15.42,0 28.23,10.49 31.15,21.1l109.54 0c5.54,-14.55 17.1,-20.88 29.8,-20.88 13.15,-0.09 25.65,7.96 30.55,20.88l4.67 0c5.25,0 7.65,-5.33 7.65,-10.7l0 -64.32 -3.76 -9.81z"/>
   <circle class="fil1" cx="53.05" cy="177.51" r="26.63"/>
   <circle class="fil1" cx="223.54" cy="177.51" r="26.63"/>
  </g>
  <path class="fil2" d="M146.86 32.08c-1.32,0 -2.99,0.16 -4.97,0.48 -2.06,0.33 -3.48,0.72 -4.34,1.18 -0.85,0.46 -2.15,1.6 -3.95,3.5 -1.74,1.83 -3.98,4.71 -6.64,8.55 -2.66,3.83 -5,7.56 -6.97,11.08 -1.76,3.15 -3.56,6.61 -5.35,10.3 -1.26,-1.59 -2.58,-2.87 -3.94,-3.81 -1.73,-1.19 -3.38,-1.79 -4.92,-1.79 -1.57,0 -3.28,0.68 -5.09,2.04 -1.89,1.41 -2.84,3.01 -2.84,4.75 0,1.31 0.82,2.85 2.5,4.7 2.45,2.68 4.42,5.17 5.87,7.4 1.08,1.66 1.81,2.7 2.26,3.19 0.5,0.56 1.14,0.98 1.9,1.25 0.73,0.26 1.94,0.39 3.7,0.39 2.42,0 4.06,-0.26 5.03,-0.79 0.97,-0.53 1.74,-1.29 2.28,-2.24 0.49,-0.86 1.26,-2.59 2.34,-5.27 2.7,-6.72 6.37,-13.76 10.9,-20.92 4.52,-7.13 8.96,-12.73 13.17,-16.62 1.03,-0.94 1.66,-1.61 1.98,-2.1 0.36,-0.56 0.54,-1.21 0.54,-1.93 0,-0.92 -0.32,-1.71 -0.96,-2.36 -0.64,-0.65 -1.48,-0.98 -2.49,-0.98z"/>
 </g>
</svg>
