<?xml version="1.0" encoding="UTF-8"?>
<!DOCTYPE svg PUBLIC "-//W3C//DTD SVG 1.1//EN" "http://www.w3.org/Graphics/SVG/1.1/DTD/svg11.dtd">
<!-- Creator: CorelDRAW -->
<svg xmlns="http://www.w3.org/2000/svg" xml:space="preserve" width="35.4339mm" height="27.1251mm" version="1.1" style="shape-rendering:geometricPrecision; text-rendering:geometricPrecision; image-rendering:optimizeQuality; fill-rule:evenodd; clip-rule:evenodd"
viewBox="0 0 336.11 257.3"
 xmlns:xlink="http://www.w3.org/1999/xlink"
 xmlns:xodm="http://www.corel.com/coreldraw/odm/2003">
 <defs>
  <style type="text/css">
   <![CDATA[
    .fil1 {fill:#C63437}
    .fil2 {fill:#FEFEFE;fill-rule:nonzero}
    .fil0 {fill:#C63437;fill-rule:nonzero}
   ]]>
  </style>
 </defs>
 <g id="Capa_x0020_1">
  <metadata id="CorelCorpID_0Corel-Layer"/>
  <g id="_2681883210864">
   <path class="fil0" d="M192.58 0.05l-155 0c-41.23,0 -37.49,-2.32 -37.49,43.87l0 109.77 192.14 0 27.37 0c0,-8.55 0,-19.94 0,-28.49 0,-35.74 0,-62 0,-97.74 0,-29.92 2.58,-27.42 -27.02,-27.42z"/>
   <path class="fil0" d="M331.38 101.56l-64.77 0c-3.22,0 -5.78,-3.08 -5.78,-6.8 0,-3.84 2.59,-6.88 5.78,-6.88l60.81 0c-0.4,-17.8 -6.35,-34.41 -16.97,-47.13 -11.09,-13.12 -25.77,-20.36 -41.32,-20.36l-37.96 -0 0 140.24c0,3.72 -2.59,6.8 -5.78,6.8l-225.22 0c0,44.71 -4,41.05 27.39,41.05 3.75,-14.64 22.19,-26.6 39.66,-26.6 19.43,0 35.59,13.22 39.25,26.6l138.06 0c6.98,-18.34 21.55,-26.32 37.56,-26.32 16.57,-0.11 32.33,10.04 38.51,26.32l5.88 0c6.62,0 9.64,-6.72 9.64,-13.48l0 -81.06 -4.74 -12.36z"/>
   <circle class="fil1" cx="66.87" cy="223.73" r="33.57"/>
   <circle class="fil1" cx="281.75" cy="223.73" r="33.57"/>
  </g>
  <path class="fil2" d="M145.01 74.79c0,18.81 -15.25,34.06 -34.06,34.06 -18.81,0 -34.06,-15.25 -34.06,-34.06 0,-18.81 15.25,-34.06 34.06,-34.06 18.81,0 34.06,15.25 34.06,34.06zm-78.17 0c0,24.36 19.75,44.11 44.11,44.11 24.36,0 44.11,-19.75 44.11,-44.11 0,-24.36 -19.75,-44.11 -44.11,-44.11 -24.36,0 -44.11,19.75 -44.11,44.11z"/>
  <path class="fil2" d="M109.39 48.78l0 25.85c0,0.76 0.62,1.37 1.37,1.37 0.76,0 1.37,-0.62 1.37,-1.37l0 -25.85c0,-0.76 -0.61,-1.37 -1.37,-1.37 -0.76,0 -1.37,0.61 -1.37,1.37z"/>
  <path class="fil2" d="M111.41 72.81c-1.11,0 -2.01,0.9 -2.01,2 0,1.11 0.9,2.01 2.01,2.01l16.94 0c1.11,0 2.01,-0.9 2.01,-2.01 0,-1.11 -0.9,-2 -2.01,-2l-16.94 0z"/>
  <path class="fil2" d="M107.74 74.56c0,1.88 1.53,3.41 3.41,3.41 1.89,0 3.41,-1.53 3.41,-3.41 0,-1.89 -1.53,-3.41 -3.41,-3.41 -1.88,0 -3.41,1.53 -3.41,3.41z"/>
 </g>
</svg>
