<?xml version="1.0" encoding="UTF-8"?>
<!DOCTYPE svg PUBLIC "-//W3C//DTD SVG 1.1//EN" "http://www.w3.org/Graphics/SVG/1.1/DTD/svg11.dtd">
<!-- Creator: CorelDRAW -->
<svg xmlns="http://www.w3.org/2000/svg" xml:space="preserve" width="32.5499mm" height="27.125mm" version="1.1" style="shape-rendering:geometricPrecision; text-rendering:geometricPrecision; image-rendering:optimizeQuality; fill-rule:evenodd; clip-rule:evenodd"
viewBox="0 0 91.86 76.55"
 xmlns:xlink="http://www.w3.org/1999/xlink"
 xmlns:xodm="http://www.corel.com/coreldraw/odm/2003">
 <defs>
  <style type="text/css">
   <![CDATA[
    .fil0 {fill:#C63437;fill-rule:nonzero}
   ]]>
  </style>
 </defs>
 <g id="Capa_x0020_1">
  <metadata id="CorelCorpID_0Corel-Layer"/>
  <path class="fil0" d="M1.55 76.34c0.94,0.4 2.03,0.2 2.77,-0.51 12.55,-12.12 29.05,-19.04 46.71,-19.65l0 17.82c0,1.03 0.62,1.96 1.57,2.36 0.32,0.13 0.65,0.19 0.98,0.19 0.66,0 1.32,-0.26 1.8,-0.75l35.72 -35.72c1,-1 1,-2.61 0,-3.61l-35.72 -35.72c-0.73,-0.73 -1.83,-0.95 -2.78,-0.55 -0.95,0.39 -1.57,1.32 -1.57,2.36l0 17.92c-28.37,1.34 -51.03,24.83 -51.03,53.52 0,1.02 0.61,1.95 1.55,2.35zm52.03 -50.83c1.41,0 2.55,-1.14 2.55,-2.55l-0 -14.25 29.56 29.56 -29.56 29.56 0 -14.25c0,-1.41 -1.14,-2.55 -2.55,-2.55 -17.8,0 -34.66,5.98 -48.11,16.96 2.97,-23.91 23.41,-42.47 48.11,-42.47z"/>
 </g>
</svg>
