<svg xmlns="http://www.w3.org/2000/svg" xmlns:xlink="http://www.w3.org/1999/xlink" version="1.1" x="0px" y="0px" viewBox="0 0 100 125" style="enable-background:new 0 0 100 100;" xml:space="preserve"><style type="text/css">
	.st0{fill-rule:evenodd;clip-rule:evenodd;}
</style><path class="st0" d="M52.26,21.4l3.12-3.12c-1.52-4.7-0.42-10.06,3.32-13.8c2.98-2.98,6.99-4.28,10.88-3.91  c0.91,0.08,1.64,0.65,1.96,1.52c0.31,0.86,0.11,1.77-0.54,2.42l-5.2,5.2c-1.9,1.89-1.9,4.99,0,6.88c1.89,1.9,4.99,1.9,6.88,0  l5.2-5.2c0.65-0.65,1.56-0.85,2.42-0.54c0.86,0.31,1.43,1.04,1.52,1.96c0.37,3.89-0.94,7.9-3.92,10.88  c-3.73,3.73-9.1,4.84-13.8,3.32l-3.12,3.12L52.26,21.4z M31.02,42.63l8-8l8.72,8.71l-8,8c-2.37,2.37-6.25,2.37-8.62,0l-0.09-0.09  C28.65,48.88,28.65,45.01,31.02,42.63z M34.91,47.41l0.05,0.04c0.62,0.62,1.63,0.63,2.25,0.01c0.62-0.62,0.62-1.63,0.01-2.25  l-0.05-0.05c-0.62-0.62-1.63-0.62-2.25-0.01C34.29,45.78,34.29,46.79,34.91,47.41z M22.1,23.68c-2.98-2.98-4.28-6.99-3.92-10.88  c0.09-0.92,0.66-1.65,1.52-1.96c0.87-0.31,1.77-0.11,2.42,0.54l5.2,5.2c1.89,1.9,4.99,1.9,6.88,0c1.89-1.89,1.89-4.99,0-6.88  l-5.2-5.2c-0.65-0.65-0.85-1.56-0.54-2.42c0.31-0.87,1.05-1.44,1.96-1.52c3.89-0.37,7.9,0.94,10.88,3.91  c3.73,3.74,4.83,9.1,3.31,13.8l24.35,24.36c2.38,2.37,2.38,6.24,0,8.62l-0.09,0.09c-2.37,2.37-6.25,2.37-8.62,0L35.9,27  C31.2,28.52,25.83,27.41,22.1,23.68z M62.79,47.46c0.62,0.62,1.63,0.62,2.25-0.01l0.04-0.04c0.62-0.62,0.62-1.63-0.01-2.25  c-0.62-0.62-1.63-0.62-2.25,0.01l-0.04,0.05C62.16,45.83,62.17,46.84,62.79,47.46z M88.81,59.15H67.94  c0,9.91-8.03,17.94-17.94,17.94c-9.91,0-17.94-8.04-17.94-17.94H11.19c-0.85,0-1.54,0.69-1.54,1.54v3c0,3.12,2.54,5.67,5.67,5.67  h5.28c0.4,1.15,0.87,2.27,1.39,3.35l-3.73,3.74c-2.21,2.21-2.21,5.81,0,8.02l6.41,6.42c2.21,2.21,5.82,2.21,8.02,0l3.73-3.74  c1.09,0.53,2.21,1,3.36,1.4v5.28c0,3.12,2.55,5.67,5.67,5.67h9.07c3.12,0,5.67-2.55,5.67-5.67v-5.28c1.15-0.4,2.27-0.87,3.36-1.4  l3.74,3.74c2.21,2.21,5.81,2.21,8.02,0l6.42-6.42c2.21-2.21,2.21-5.81,0-8.02L78,72.71c0.53-1.09,1-2.2,1.4-3.35h5.28  c3.12,0,5.67-2.55,5.67-5.67v-3C90.35,59.84,89.66,59.15,88.81,59.15z"/></svg>