<?xml version="1.0" encoding="UTF-8"?>
<!DOCTYPE svg PUBLIC "-//W3C//DTD SVG 1.1//EN" "http://www.w3.org/Graphics/SVG/1.1/DTD/svg11.dtd">
<!-- Creator: CorelDRAW -->
<svg xmlns="http://www.w3.org/2000/svg" xml:space="preserve" width="24.982mm" height="27.2474mm" version="1.1" style="shape-rendering:geometricPrecision; text-rendering:geometricPrecision; image-rendering:optimizeQuality; fill-rule:evenodd; clip-rule:evenodd"
viewBox="0 0 78.17 85.25"
 xmlns:xlink="http://www.w3.org/1999/xlink"
 xmlns:xodm="http://www.corel.com/coreldraw/odm/2003">
 <defs>
  <style type="text/css">
   <![CDATA[
    .fil0 {fill:#4B4B4D;fill-rule:nonzero}
   ]]>
  </style>
 </defs>
 <g id="Capa_x0020_1">
  <metadata id="CorelCorpID_0Corel-Layer"/>
  <path class="fil0" d="M39.08 40.05c12.92,0 23.4,-8.97 23.4,-20.02 0,-11.06 -10.48,-20.02 -23.4,-20.02 -12.92,0 -23.4,8.97 -23.4,20.02 0.02,11.04 10.48,20.01 23.4,20.02l0 0zm0 -33.36c8.6,0 15.6,5.97 15.6,13.35 0,7.38 -6.98,13.35 -15.6,13.35 -8.6,0 -15.6,-5.97 -15.6,-13.35 0,-7.36 6.98,-13.35 15.6,-13.35z"/>
  <path class="fil0" d="M39.06 44.87c-21.56,0.02 -39.05,16.28 -39.06,36.34 0,2.24 1.94,4.04 4.34,4.04 2.4,0 4.34,-1.8 4.34,-4.04 0,-15.61 13.61,-28.28 30.4,-28.28 16.77,0 30.4,12.66 30.4,28.28 0,2.24 1.94,4.04 4.34,4.04 2.4,0 4.34,-1.8 4.34,-4.04 -0.02,-20.06 -17.5,-36.33 -39.06,-36.34l0 0 -0.04 0z"/>
 </g>
</svg>
