<?xml version="1.0" encoding="UTF-8"?>
<!DOCTYPE svg PUBLIC "-//W3C//DTD SVG 1.1//EN" "http://www.w3.org/Graphics/SVG/1.1/DTD/svg11.dtd">
<!-- Creator: CorelDRAW -->
<svg xmlns="http://www.w3.org/2000/svg" xml:space="preserve" width="30.7202mm" height="26.7254mm" version="1.1" style="shape-rendering:geometricPrecision; text-rendering:geometricPrecision; image-rendering:optimizeQuality; fill-rule:evenodd; clip-rule:evenodd"
viewBox="0 0 656.7 571.31"
 xmlns:xlink="http://www.w3.org/1999/xlink"
 xmlns:xodm="http://www.corel.com/coreldraw/odm/2003">
 <defs>
  <style type="text/css">
   <![CDATA[
    .fil0 {fill:#C63437;fill-rule:nonzero}
   ]]>
  </style>
 </defs>
 <g id="Capa_x0020_1">
  <metadata id="CorelCorpID_0Corel-Layer"/>
  <path class="fil0" d="M399.39 512.09c-80.44,80.29 -64.76,80.4 -159.09,-8.63 -93.09,-90.04 -235.2,-194.19 -240.3,-333.69l0 -9.01c0,-0.19 0,-0.41 0,-0.6 0,-43 17.81,-84.14 49.16,-113.54 30.79,-27.99 70.73,-44.62 112.35,-44.95 106.56,-0.83 149.94,77.75 163.24,77.77 13.61,0.02 58.38,-79.42 149.72,-79.42 28.35,0 56.38,6.7 81.67,19.51 26.34,13.14 49.26,32.34 66.84,55.98 17.81,23.69 29.16,51.74 32.78,81.17 0.62,5.89 0.95,11.85 0.95,17.78 0,26.7 -6.45,53.03 -18.7,76.75 -35.27,68.3 -170.49,189.15 -238.61,260.89zm202.61 -337.29c0,-4.7 -0.26,-9.43 -0.76,-14.09 -8.47,-70.45 -61.12,-110.18 -126.43,-110.18 -51.63,0 -87.35,35.67 -124.75,75.41 -25.8,26.4 -22.95,26.19 -48.6,1.64 -45.33,-44.52 -78.18,-73.47 -138.72,-73.47 -59.99,1.47 -112.34,35.76 -112.34,106.31 0,0.25 0,0.53 0,0.77l0 7.32c4.52,109.94 141.52,218.42 225.75,301.25 53.79,52.9 45.35,49.7 97.83,-1.82 66.38,-73.02 228.01,-212.21 228.01,-293.14z"/>
 </g>
</svg>
